<!-- Generated by tools/build-icon-sprites.mjs. Do not edit by hand. -->
<!-- Source: lucide-static@1.23.0 (ISC) - https://lucide.dev -->
<!-- Curated subset for UI Backlot claude surfaces; see docs/asset-policy.md -->
<svg xmlns="http://www.w3.org/2000/svg" style="display:none" aria-hidden="true">
  <symbol id="lucide-plus" viewBox="0 0 24 24" fill="none" stroke="currentColor" stroke-width="2" stroke-linecap="round" stroke-linejoin="round">
    <path d="M5 12h14" />
    <path d="M12 5v14" />
  </symbol>
  <symbol id="lucide-mic" viewBox="0 0 24 24" fill="none" stroke="currentColor" stroke-width="2" stroke-linecap="round" stroke-linejoin="round">
    <path d="M12 19v3" />
    <path d="M19 10v2a7 7 0 0 1-14 0v-2" />
    <rect x="9" y="2" width="6" height="13" rx="3" />
  </symbol>
  <symbol id="lucide-send-up" viewBox="0 0 24 24" fill="none" stroke="currentColor" stroke-width="2" stroke-linecap="round" stroke-linejoin="round">
    <path d="m5 12 7-7 7 7" />
    <path d="M12 19V5" />
  </symbol>
  <symbol id="lucide-paperclip" viewBox="0 0 24 24" fill="none" stroke="currentColor" stroke-width="2" stroke-linecap="round" stroke-linejoin="round">
    <path d="m16 6-8.414 8.586a2 2 0 0 0 2.829 2.829l8.414-8.586a4 4 0 1 0-5.657-5.657l-8.379 8.551a6 6 0 1 0 8.485 8.485l8.379-8.551" />
  </symbol>
  <symbol id="lucide-globe" viewBox="0 0 24 24" fill="none" stroke="currentColor" stroke-width="2" stroke-linecap="round" stroke-linejoin="round">
    <circle cx="12" cy="12" r="10" />
    <path d="M12 2a14.5 14.5 0 0 0 0 20 14.5 14.5 0 0 0 0-20" />
    <path d="M2 12h20" />
  </symbol>
  <symbol id="lucide-folder" viewBox="0 0 24 24" fill="none" stroke="currentColor" stroke-width="2" stroke-linecap="round" stroke-linejoin="round">
    <path d="M20 20a2 2 0 0 0 2-2V8a2 2 0 0 0-2-2h-7.9a2 2 0 0 1-1.69-.9L9.6 3.9A2 2 0 0 0 7.93 3H4a2 2 0 0 0-2 2v13a2 2 0 0 0 2 2Z" />
  </symbol>
  <symbol id="lucide-folder-open" viewBox="0 0 24 24" fill="none" stroke="currentColor" stroke-width="2" stroke-linecap="round" stroke-linejoin="round">
    <path d="m6 14 1.5-2.9A2 2 0 0 1 9.24 10H20a2 2 0 0 1 1.94 2.5l-1.54 6a2 2 0 0 1-1.95 1.5H4a2 2 0 0 1-2-2V5a2 2 0 0 1 2-2h3.9a2 2 0 0 1 1.69.9l.81 1.2a2 2 0 0 0 1.67.9H18a2 2 0 0 1 2 2v2" />
  </symbol>
  <symbol id="lucide-share" viewBox="0 0 24 24" fill="none" stroke="currentColor" stroke-width="2" stroke-linecap="round" stroke-linejoin="round">
    <path d="M12 2v13" />
    <path d="m16 6-4-4-4 4" />
    <path d="M4 12v8a2 2 0 0 0 2 2h12a2 2 0 0 0 2-2v-8" />
  </symbol>
  <symbol id="lucide-sliders" viewBox="0 0 24 24" fill="none" stroke="currentColor" stroke-width="2" stroke-linecap="round" stroke-linejoin="round">
    <path d="M10 5H3" />
    <path d="M12 19H3" />
    <path d="M14 3v4" />
    <path d="M16 17v4" />
    <path d="M21 12h-9" />
    <path d="M21 19h-5" />
    <path d="M21 5h-7" />
    <path d="M8 10v4" />
    <path d="M8 12H3" />
  </symbol>
  <symbol id="lucide-settings" viewBox="0 0 24 24" fill="none" stroke="currentColor" stroke-width="2" stroke-linecap="round" stroke-linejoin="round">
    <path d="M9.671 4.136a2.34 2.34 0 0 1 4.659 0 2.34 2.34 0 0 0 3.319 1.915 2.34 2.34 0 0 1 2.33 4.033 2.34 2.34 0 0 0 0 3.831 2.34 2.34 0 0 1-2.33 4.033 2.34 2.34 0 0 0-3.319 1.915 2.34 2.34 0 0 1-4.659 0 2.34 2.34 0 0 0-3.32-1.915 2.34 2.34 0 0 1-2.33-4.033 2.34 2.34 0 0 0 0-3.831A2.34 2.34 0 0 1 6.35 6.051a2.34 2.34 0 0 0 3.319-1.915" />
    <circle cx="12" cy="12" r="3" />
  </symbol>
  <symbol id="lucide-sidebar-toggle" viewBox="0 0 24 24" fill="none" stroke="currentColor" stroke-width="2" stroke-linecap="round" stroke-linejoin="round">
    <rect width="18" height="18" x="3" y="3" rx="2" />
    <path d="M9 3v18" />
  </symbol>
  <symbol id="lucide-chevron-down" viewBox="0 0 24 24" fill="none" stroke="currentColor" stroke-width="2" stroke-linecap="round" stroke-linejoin="round">
    <path d="m6 9 6 6 6-6" />
  </symbol>
  <symbol id="lucide-chevron-right" viewBox="0 0 24 24" fill="none" stroke="currentColor" stroke-width="2" stroke-linecap="round" stroke-linejoin="round">
    <path d="m9 18 6-6-6-6" />
  </symbol>
  <symbol id="lucide-check" viewBox="0 0 24 24" fill="none" stroke="currentColor" stroke-width="2" stroke-linecap="round" stroke-linejoin="round">
    <path d="M20 6 9 17l-5-5" />
  </symbol>
  <symbol id="lucide-x" viewBox="0 0 24 24" fill="none" stroke="currentColor" stroke-width="2" stroke-linecap="round" stroke-linejoin="round">
    <path d="M18 6 6 18" />
    <path d="m6 6 12 12" />
  </symbol>
  <symbol id="lucide-copy" viewBox="0 0 24 24" fill="none" stroke="currentColor" stroke-width="2" stroke-linecap="round" stroke-linejoin="round">
    <rect width="14" height="14" x="8" y="8" rx="2" ry="2" />
    <path d="M4 16c-1.1 0-2-.9-2-2V4c0-1.1.9-2 2-2h10c1.1 0 2 .9 2 2" />
  </symbol>
  <symbol id="lucide-thumbs-up" viewBox="0 0 24 24" fill="none" stroke="currentColor" stroke-width="2" stroke-linecap="round" stroke-linejoin="round">
    <path d="M15 5.88 14 10h5.83a2 2 0 0 1 1.92 2.56l-2.33 8A2 2 0 0 1 17.5 22H4a2 2 0 0 1-2-2v-8a2 2 0 0 1 2-2h2.76a2 2 0 0 0 1.79-1.11L12 2a3.13 3.13 0 0 1 3 3.88Z" />
    <path d="M7 10v12" />
  </symbol>
  <symbol id="lucide-thumbs-down" viewBox="0 0 24 24" fill="none" stroke="currentColor" stroke-width="2" stroke-linecap="round" stroke-linejoin="round">
    <path d="M9 18.12 10 14H4.17a2 2 0 0 1-1.92-2.56l2.33-8A2 2 0 0 1 6.5 2H20a2 2 0 0 1 2 2v8a2 2 0 0 1-2 2h-2.76a2 2 0 0 0-1.79 1.11L12 22a3.13 3.13 0 0 1-3-3.88Z" />
    <path d="M17 14V2" />
  </symbol>
  <symbol id="lucide-retry" viewBox="0 0 24 24" fill="none" stroke="currentColor" stroke-width="2" stroke-linecap="round" stroke-linejoin="round">
    <path d="M3 12a9 9 0 0 1 9-9 9.75 9.75 0 0 1 6.74 2.74L21 8" />
    <path d="M21 3v5h-5" />
    <path d="M21 12a9 9 0 0 1-9 9 9.75 9.75 0 0 1-6.74-2.74L3 16" />
    <path d="M8 16H3v5" />
  </symbol>
  <symbol id="lucide-new-chat" viewBox="0 0 24 24" fill="none" stroke="currentColor" stroke-width="2" stroke-linecap="round" stroke-linejoin="round">
    <path d="M12 3H5a2 2 0 0 0-2 2v14a2 2 0 0 0 2 2h14a2 2 0 0 0 2-2v-7" />
    <path d="M18.375 2.625a1 1 0 0 1 3 3l-9.013 9.014a2 2 0 0 1-.853.505l-2.873.84a.5.5 0 0 1-.62-.62l.84-2.873a2 2 0 0 1 .506-.852z" />
  </symbol>
  <symbol id="lucide-search" viewBox="0 0 24 24" fill="none" stroke="currentColor" stroke-width="2" stroke-linecap="round" stroke-linejoin="round">
    <path d="m21 21-4.34-4.34" />
    <circle cx="11" cy="11" r="8" />
  </symbol>
  <symbol id="lucide-file-text" viewBox="0 0 24 24" fill="none" stroke="currentColor" stroke-width="2" stroke-linecap="round" stroke-linejoin="round">
    <path d="M6 22a2 2 0 0 1-2-2V4a2 2 0 0 1 2-2h8a2.4 2.4 0 0 1 1.704.706l3.588 3.588A2.4 2.4 0 0 1 20 8v12a2 2 0 0 1-2 2z" />
    <path d="M14 2v5a1 1 0 0 0 1 1h5" />
    <path d="M10 9H8" />
    <path d="M16 13H8" />
    <path d="M16 17H8" />
  </symbol>
  <symbol id="lucide-image" viewBox="0 0 24 24" fill="none" stroke="currentColor" stroke-width="2" stroke-linecap="round" stroke-linejoin="round">
    <rect width="18" height="18" x="3" y="3" rx="2" ry="2" />
    <circle cx="9" cy="9" r="2" />
    <path d="m21 15-3.086-3.086a2 2 0 0 0-2.828 0L6 21" />
  </symbol>
  <symbol id="lucide-terminal" viewBox="0 0 24 24" fill="none" stroke="currentColor" stroke-width="2" stroke-linecap="round" stroke-linejoin="round">
    <path d="M12 19h8" />
    <path d="m4 17 6-6-6-6" />
  </symbol>
  <symbol id="lucide-loader" viewBox="0 0 24 24" fill="none" stroke="currentColor" stroke-width="2" stroke-linecap="round" stroke-linejoin="round">
    <path d="M21 12a9 9 0 1 1-6.219-8.56" />
  </symbol>
  <symbol id="lucide-more" viewBox="0 0 24 24" fill="none" stroke="currentColor" stroke-width="2" stroke-linecap="round" stroke-linejoin="round">
    <circle cx="12" cy="12" r="1" />
    <circle cx="19" cy="12" r="1" />
    <circle cx="5" cy="12" r="1" />
  </symbol>
  <symbol id="lucide-menu" viewBox="0 0 24 24" fill="none" stroke="currentColor" stroke-width="2" stroke-linecap="round" stroke-linejoin="round">
    <path d="M4 5h16" />
    <path d="M4 12h16" />
    <path d="M4 19h16" />
  </symbol>
  <symbol id="lucide-external-link" viewBox="0 0 24 24" fill="none" stroke="currentColor" stroke-width="2" stroke-linecap="round" stroke-linejoin="round">
    <path d="M15 3h6v6" />
    <path d="M10 14 21 3" />
    <path d="M18 13v6a2 2 0 0 1-2 2H5a2 2 0 0 1-2-2V8a2 2 0 0 1 2-2h6" />
  </symbol>
  <symbol id="lucide-download" viewBox="0 0 24 24" fill="none" stroke="currentColor" stroke-width="2" stroke-linecap="round" stroke-linejoin="round">
    <path d="M12 15V3" />
    <path d="M21 15v4a2 2 0 0 1-2 2H5a2 2 0 0 1-2-2v-4" />
    <path d="m7 10 5 5 5-5" />
  </symbol>
  <symbol id="lucide-clock" viewBox="0 0 24 24" fill="none" stroke="currentColor" stroke-width="2" stroke-linecap="round" stroke-linejoin="round">
    <circle cx="12" cy="12" r="10" />
    <path d="M12 6v6l4 2" />
  </symbol>
  <symbol id="lucide-chat" viewBox="0 0 24 24" fill="none" stroke="currentColor" stroke-width="2" stroke-linecap="round" stroke-linejoin="round">
    <path d="M22 17a2 2 0 0 1-2 2H6.828a2 2 0 0 0-1.414.586l-2.202 2.202A.71.71 0 0 1 2 21.286V5a2 2 0 0 1 2-2h16a2 2 0 0 1 2 2z" />
  </symbol>
  <symbol id="lucide-message-circle" viewBox="0 0 24 24" fill="none" stroke="currentColor" stroke-width="2" stroke-linecap="round" stroke-linejoin="round">
    <path d="M2.992 16.342a2 2 0 0 1 .094 1.167l-1.065 3.29a1 1 0 0 0 1.236 1.168l3.413-.998a2 2 0 0 1 1.099.092 10 10 0 1 0-4.777-4.719" />
  </symbol>
  <symbol id="lucide-list" viewBox="0 0 24 24" fill="none" stroke="currentColor" stroke-width="2" stroke-linecap="round" stroke-linejoin="round">
    <path d="M3 5h.01" />
    <path d="M3 12h.01" />
    <path d="M3 19h.01" />
    <path d="M8 5h13" />
    <path d="M8 12h13" />
    <path d="M8 19h13" />
  </symbol>
  <symbol id="lucide-code" viewBox="0 0 24 24" fill="none" stroke="currentColor" stroke-width="2" stroke-linecap="round" stroke-linejoin="round">
    <path d="m16 18 6-6-6-6" />
    <path d="m8 6-6 6 6 6" />
  </symbol>
  <symbol id="lucide-briefcase" viewBox="0 0 24 24" fill="none" stroke="currentColor" stroke-width="2" stroke-linecap="round" stroke-linejoin="round">
    <path d="M16 20V4a2 2 0 0 0-2-2h-4a2 2 0 0 0-2 2v16" />
    <rect width="20" height="14" x="2" y="6" rx="2" />
  </symbol>
  <symbol id="lucide-git-branch" viewBox="0 0 24 24" fill="none" stroke="currentColor" stroke-width="2" stroke-linecap="round" stroke-linejoin="round">
    <path d="M15 6a9 9 0 0 0-9 9V3" />
    <circle cx="18" cy="6" r="3" />
    <circle cx="6" cy="18" r="3" />
  </symbol>
  <symbol id="lucide-circle-dashed" viewBox="0 0 24 24" fill="none" stroke="currentColor" stroke-width="2" stroke-linecap="round" stroke-linejoin="round">
    <path d="M10.1 2.182a10 10 0 0 1 3.8 0" />
    <path d="M13.9 21.818a10 10 0 0 1-3.8 0" />
    <path d="M17.609 3.721a10 10 0 0 1 2.69 2.7" />
    <path d="M2.182 13.9a10 10 0 0 1 0-3.8" />
    <path d="M20.279 17.609a10 10 0 0 1-2.7 2.69" />
    <path d="M21.818 10.1a10 10 0 0 1 0 3.8" />
    <path d="M3.721 6.391a10 10 0 0 1 2.7-2.69" />
    <path d="M6.391 20.279a10 10 0 0 1-2.69-2.7" />
  </symbol>
  <symbol id="lucide-building" viewBox="0 0 24 24" fill="none" stroke="currentColor" stroke-width="2" stroke-linecap="round" stroke-linejoin="round">
    <path d="M12 10h.01" />
    <path d="M12 14h.01" />
    <path d="M12 6h.01" />
    <path d="M16 10h.01" />
    <path d="M16 14h.01" />
    <path d="M16 6h.01" />
    <path d="M8 10h.01" />
    <path d="M8 14h.01" />
    <path d="M8 6h.01" />
    <path d="M9 22v-3a1 1 0 0 1 1-1h4a1 1 0 0 1 1 1v3" />
    <rect x="4" y="2" width="16" height="20" rx="2" />
  </symbol>
  <symbol id="lucide-sun" viewBox="0 0 24 24" fill="none" stroke="currentColor" stroke-width="2" stroke-linecap="round" stroke-linejoin="round">
    <circle cx="12" cy="12" r="4" />
    <path d="M12 2v2" />
    <path d="M12 20v2" />
    <path d="m4.93 4.93 1.41 1.41" />
    <path d="m17.66 17.66 1.41 1.41" />
    <path d="M2 12h2" />
    <path d="M20 12h2" />
    <path d="m6.34 17.66-1.41 1.41" />
    <path d="m19.07 4.93-1.41 1.41" />
  </symbol>
  <symbol id="lucide-laptop" viewBox="0 0 24 24" fill="none" stroke="currentColor" stroke-width="2" stroke-linecap="round" stroke-linejoin="round">
    <path d="M18 5a2 2 0 0 1 2 2v8.526a2 2 0 0 0 .212.897l1.068 2.127a1 1 0 0 1-.9 1.45H3.62a1 1 0 0 1-.9-1.45l1.068-2.127A2 2 0 0 0 4 15.526V7a2 2 0 0 1 2-2z" />
    <path d="M20.054 15.987H3.946" />
  </symbol>
</svg>
