<svg xmlns="http://www.w3.org/2000/svg">
  <symbol id="fluent-document-edit-20" viewBox="0 0 20 20">
    <path fill="currentColor" d="M11.5 8H16v-.59a1.5 1.5 0 0 0-.06-.4V7a1.5 1.5 0 0 0-.38-.65l-3.91-3.91A1.5 1.5 0 0 0 10.59 2H6a2 2 0 0 0-2 2v12c0 1.1.9 2 2 2h2.22l-.01-.03A1.86 1.86 0 0 1 8 17H6a1 1 0 0 1-1-1V4a1 1 0 0 1 1-1h4v3.5c0 .83.67 1.5 1.5 1.5Zm0-1a.5.5 0 0 1-.5-.5V3.2L14.8 7h-3.3Zm3.3 2.55a1.87 1.87 0 1 1 2.65 2.64l-4.83 4.83a2.2 2.2 0 0 1-1.02.58l-1.5.37a.89.89 0 0 1-1.07-1.07l.37-1.5c.1-.39.3-.74.58-1.02l4.83-4.83Z"/>
  </symbol>
  <symbol id="fluent-document-checkmark-20" viewBox="0 0 20 20">
    <path fill="currentColor" d="M6 2a2 2 0 0 0-2 2v5.2c.32-.08.66-.15 1-.18V4a1 1 0 0 1 1-1h4v3.5c0 .83.67 1.5 1.5 1.5H15v8a1 1 0 0 1-1 1h-3.6c-.18.36-.4.7-.66 1H14a2 2 0 0 0 2-2V7.41c0-.4-.16-.78-.44-1.06l-3.91-3.91A1.5 1.5 0 0 0 10.59 2H6Zm8.8 5h-3.3a.5.5 0 0 1-.5-.5V3.2L14.8 7ZM10 14.5a4.5 4.5 0 1 1-9 0 4.5 4.5 0 0 1 9 0Zm-2.15-1.85a.5.5 0 0 0-.7 0L4.5 15.29l-.65-.64a.5.5 0 0 0-.7.7l1 1c.2.2.5.2.7 0l3-3a.5.5 0 0 0 0-.7Z"/>
  </symbol>
  <symbol id="fluent-document-dismiss-20" viewBox="0 0 20 20">
    <path fill="currentColor" d="M6 2a2 2 0 0 0-2 2v5.2c.32-.08.66-.15 1-.18V4a1 1 0 0 1 1-1h4v3.5c0 .83.67 1.5 1.5 1.5H15v8a1 1 0 0 1-1 1h-3.6c-.18.36-.4.7-.66 1H14a2 2 0 0 0 2-2V7.41c0-.4-.16-.78-.44-1.06l-3.91-3.91A1.5 1.5 0 0 0 10.59 2H6Zm8.8 5h-3.3a.5.5 0 0 1-.5-.5V3.2L14.8 7ZM8.67 17.68a4.5 4.5 0 1 0-6.36-6.36 4.5 4.5 0 0 0 6.36 6.36Zm-4.95-4.95c.2-.2.51-.2.7 0L5.5 13.8l1.06-1.06a.5.5 0 1 1 .7.7L6.22 14.5l1.06 1.06a.5.5 0 1 1-.71.7L5.5 15.22l-1.06 1.06a.5.5 0 1 1-.7-.71l1.05-1.06-1.06-1.06a.5.5 0 0 1 0-.7Z"/>
  </symbol>
  <symbol id="fluent-comment-add-20" viewBox="0 0 20 20">
    <path fill="currentColor" d="M19 5.5a4.5 4.5 0 1 1-9 0 4.5 4.5 0 0 1 9 0Zm-4-2a.5.5 0 0 0-1 0V5h-1.5a.5.5 0 0 0 0 1H14v1.5a.5.5 0 0 0 1 0V6h1.5a.5.5 0 0 0 0-1H15V3.5Zm2 8.78V10.4c.36-.18.7-.4 1-.66v2.54a2.58 2.58 0 0 1-2.6 2.56h-4.59L6.8 17.8a1 1 0 0 1-1.4-.2.98.98 0 0 1-.2-.59v-2.17h-.6A2.58 2.58 0 0 1 2 12.28V5.57A2.58 2.58 0 0 1 4.6 3h5c-.16.32-.3.65-.4 1H4.6C3.7 4 3 4.71 3 5.57v6.7c0 .86.7 1.57 1.6 1.57h1.6V17l4.28-3.16h4.92c.9 0 1.6-.71 1.6-1.56Z"/>
  </symbol>
  <symbol id="fluent-comment-20" viewBox="0 0 20 20">
    <path fill="currentColor" d="M10.48 13.84h4.92c.9 0 1.6-.71 1.6-1.56V5.57C17 4.7 16.3 4 15.4 4H4.6C3.7 4 3 4.71 3 5.57v6.7c0 .86.7 1.57 1.6 1.57h1.6V17l4.28-3.16ZM6.8 17.8a1 1 0 0 1-1.4-.2.98.98 0 0 1-.2-.59v-2.17h-.6A2.58 2.58 0 0 1 2 12.28V5.57A2.58 2.58 0 0 1 4.6 3h10.8C16.84 3 18 4.15 18 5.57v6.7a2.58 2.58 0 0 1-2.6 2.57h-4.59L6.8 17.8Z"/>
  </symbol>
  <symbol id="fluent-panel-right-16" viewBox="0 0 16 16">
    <path fill="currentColor" d="M14 5.5A2.5 2.5 0 0 0 11.5 3h-7A2.5 2.5 0 0 0 2 5.5v5A2.5 2.5 0 0 0 4.5 13h7a2.5 2.5 0 0 0 2.5-2.5v-5ZM9 4v8H4.5A1.5 1.5 0 0 1 3 10.5v-5C3 4.67 3.67 4 4.5 4H9Zm1 0h1.5c.83 0 1.5.67 1.5 1.5v5c0 .83-.67 1.5-1.5 1.5H10V4Z"/>
  </symbol>
  <symbol id="fluent-arrow-previous-16" viewBox="0 0 16 16">
    <path fill="currentColor" d="M12.35 3.85a.5.5 0 0 0-.7-.7l-4.5 4.5a.5.5 0 0 0 0 .7l4.5 4.5a.5.5 0 0 0 .7-.7L8.21 8l4.14-4.15ZM4 3.5a.5.5 0 0 1 1 0v9a.5.5 0 0 1-1 0v-9Z"/>
  </symbol>
  <symbol id="fluent-arrow-next-16" viewBox="0 0 16 16">
    <path fill="currentColor" d="M3.65 3.85a.5.5 0 1 1 .7-.7l4.5 4.5c.2.2.2.5 0 .7l-4.5 4.5a.5.5 0 0 1-.7-.7L7.79 8 3.65 3.85ZM12 3.5a.5.5 0 0 0-1 0v9a.5.5 0 0 0 1 0v-9Z"/>
  </symbol>
</svg>
