<!-- Generated by tools/build-icon-sprites.mjs. Do not edit by hand. -->
<!-- Source: @fluentui/svg-icons@1.1.331 (MIT) - https://github.com/microsoft/fluentui-system-icons -->
<!-- Curated subset for UI Backlot office surfaces; see docs/asset-policy.md -->
<svg xmlns="http://www.w3.org/2000/svg" style="display:none" aria-hidden="true">
  <symbol id="fluent-text-bold-20" viewBox="0 0 20 20">
    <path d="M5.5 4.25C5.5 3.56 6.06 3 6.75 3h3.5a4 4 0 0 1 3.17 6.44c.9.7 1.58 1.8 1.58 3.31A4.23 4.23 0 0 1 10.75 17h-4c-.69 0-1.25-.56-1.25-1.25V4.25ZM8 11v3.5h2.75c.81 0 1.75-.62 1.75-1.75S11.56 11 10.75 11H8Zm0-2.5h2.25a1.5 1.5 0 1 0 0-3H8v3Z"/>
  </symbol>
  <symbol id="fluent-text-italic-20" viewBox="0 0 20 20">
    <path d="M16 3a.5.5 0 0 1 0 1h-3.16L8.23 16h3.27a.5.5 0 0 1 0 1H4a.5.5 0 0 1 0-1h3.16l4.61-12H8.5a.5.5 0 0 1 0-1H16Z"/>
  </symbol>
  <symbol id="fluent-text-underline-20" viewBox="0 0 20 20">
    <path d="M6 3.5a.5.5 0 0 0-1 0v6.45A5.02 5.02 0 0 0 10 15c2.77 0 5-2.26 5-5.05V3.5a.5.5 0 0 0-1 0v6.45C14 12.2 12.2 14 10 14s-4-1.8-4-4.05V3.5Zm-1 13c0-.28.22-.5.5-.5h9a.5.5 0 0 1 0 1h-9a.5.5 0 0 1-.5-.5Z"/>
  </symbol>
  <symbol id="fluent-text-color-20" viewBox="0 0 20 20">
    <path d="M10.46 2.31a.5.5 0 0 0-.92 0l-3 7.5a.5.5 0 1 0 .92.38L8.54 7.5h2.92l1.08 2.69a.5.5 0 1 0 .92-.38l-3-7.5ZM10 3.85l1.06 2.65H8.94L10 3.85ZM4.5 12c-.83 0-1.5.67-1.5 1.5v3c0 .83.67 1.5 1.5 1.5h11c.83 0 1.5-.67 1.5-1.5v-3c0-.83-.67-1.5-1.5-1.5h-11ZM4 13.5c0-.28.22-.5.5-.5h11c.28 0 .5.22.5.5v3a.5.5 0 0 1-.5.5h-11a.5.5 0 0 1-.5-.5v-3Z"/>
  </symbol>
  <symbol id="fluent-highlight-20" viewBox="0 0 20 20">
    <path d="M3.5 2c.28 0 .5.22.5.5v4c0 .28.22.5.5.5h11a.5.5 0 0 0 .5-.5v-4a.5.5 0 0 1 1 0v4c0 .65-.42 1.2-1 1.41V9a2 2 0 0 1-2 2v2.07a2 2 0 0 1-1.1 1.8l-6.18 3.08A.5.5 0 0 1 6 17.5V11a2 2 0 0 1-2-2V7.91c-.58-.2-1-.76-1-1.41v-4c0-.28.22-.5.5-.5ZM5 8v1a1 1 0 0 0 1 1h8a1 1 0 0 0 1-1V8H5Zm2 3v5.7l5.45-2.73a1 1 0 0 0 .55-.9V11H7Z"/>
  </symbol>
  <symbol id="fluent-align-left-20" viewBox="0 0 20 20">
    <path d="M2 4.5c0-.28.22-.5.5-.5h11a.5.5 0 0 1 0 1h-11a.5.5 0 0 1-.5-.5Zm0 5c0-.28.22-.5.5-.5h15a.5.5 0 0 1 0 1h-15a.5.5 0 0 1-.5-.5Zm.5 4.5a.5.5 0 0 0 0 1h9a.5.5 0 0 0 0-1h-9Z"/>
  </symbol>
  <symbol id="fluent-align-center-20" viewBox="0 0 20 20">
    <path d="M4 4.5c0-.28.22-.5.5-.5h11a.5.5 0 0 1 0 1h-11a.5.5 0 0 1-.5-.5Zm-2 5c0-.28.22-.5.5-.5h15a.5.5 0 0 1 0 1h-15a.5.5 0 0 1-.5-.5ZM6.5 14a.5.5 0 0 0 0 1h7a.5.5 0 0 0 0-1h-7Z"/>
  </symbol>
  <symbol id="fluent-bullet-list-20" viewBox="0 0 20 20">
    <path d="M3 5.5a1 1 0 1 0 0-2 1 1 0 0 0 0 2Zm3-1c0-.28.22-.5.5-.5h11a.5.5 0 0 1 0 1h-11a.5.5 0 0 1-.5-.5Zm0 5c0-.28.22-.5.5-.5h11a.5.5 0 0 1 0 1h-11a.5.5 0 0 1-.5-.5Zm.5 4.5a.5.5 0 0 0 0 1h11a.5.5 0 0 0 0-1h-11Zm-2.5.5a1 1 0 1 1-2 0 1 1 0 0 1 2 0Zm-1-4a1 1 0 1 0 0-2 1 1 0 0 0 0 2Z"/>
  </symbol>
  <symbol id="fluent-number-list-20" viewBox="0 0 20 20">
    <path d="M5 1.5a.5.5 0 0 0-.39-.49.5.5 0 0 0-.56.27l-.07.12a2.96 2.96 0 0 1-1.2 1.15.5.5 0 1 0 .44.9c.3-.15.56-.34.78-.53V5.5a.5.5 0 0 0 1 0v-4ZM2.65 7.65a.5.5 0 0 0 .7.7l.05-.04.2-.12C3.76 8.09 4 8 4.3 8c.23 0 .41.06.53.15.1.07.16.17.16.35a.5.5 0 0 1-.21.44c-.15.12-.35.22-.62.35l-.14.08c-.32.15-.7.36-1 .7-.33.35-.53.81-.53 1.43 0 .28.22.5.5.5h2.5a.5.5 0 0 0 0-1H3.59c.04-.1.1-.2.17-.27a2.38 2.38 0 0 1 .83-.53c.27-.13.59-.29.84-.5.33-.27.57-.65.57-1.2 0-.5-.22-.9-.57-1.15A1.92 1.92 0 0 0 4.33 7h-.01a2.5 2.5 0 0 0-1.66.63v.01h-.01Zm.01-.02-.01.02s.1-.1.01-.02ZM4.25 15a.5.5 0 1 0 0 1c.34 0 .53.1.63.18.1.09.13.2.13.3-.01.2-.19.52-.76.52-.41 0-.63-.1-.72-.17a.42.42 0 0 1-.1-.07.5.5 0 0 0-.88.46v.01l.02.02a.8.8 0 0 0 .1.15c.07.08.17.17.3.27.28.18.7.33 1.28.33 1.03 0 1.73-.67 1.76-1.48.01-.37-.12-.74-.4-1.02.28-.28.41-.65.4-1.02-.03-.8-.73-1.48-1.76-1.48-.59 0-1 .15-1.28.33a1.4 1.4 0 0 0-.4.42l-.01.01v.01a.5.5 0 0 0 .87.48.42.42 0 0 1 .1-.08c.1-.07.3-.17.72-.17.57 0 .75.33.76.52 0 .1-.04.21-.13.3-.1.08-.29.18-.63.18Zm-.82-.75.01-.02v.02ZM8.5 4a.5.5 0 1 0 0 1h8a.5.5 0 0 0 0-1h-8Zm0 5a.5.5 0 1 0 0 1h8a.5.5 0 0 0 0-1h-8ZM8 14.5c0-.28.22-.5.5-.5h8a.5.5 0 1 1 0 1h-8a.5.5 0 0 1-.5-.5Z"/>
  </symbol>
  <symbol id="fluent-table-20" viewBox="0 0 20 20">
    <path d="M17 5.5A2.5 2.5 0 0 0 14.5 3h-9A2.5 2.5 0 0 0 3 5.5v9A2.5 2.5 0 0 0 5.5 17h9a2.5 2.5 0 0 0 2.5-2.5v-9Zm-13 9V13h3v3H5.36A1.5 1.5 0 0 1 4 14.5Zm8-1.5v3H8v-3h4Zm2.5 3H13v-3h3V14.64A1.5 1.5 0 0 1 14.5 16ZM12 8v4H8V8h4Zm1 0h3v4h-3V8Zm-1-4v3H8V4h4Zm1 0H14.64A1.5 1.5 0 0 1 16 5.5V7h-3V4ZM7 4v3H4V5.36A1.5 1.5 0 0 1 5.5 4H7Zm0 4v4H4V8h3Z"/>
  </symbol>
  <symbol id="fluent-image-20" viewBox="0 0 20 20">
    <path d="M14 7.5a1.5 1.5 0 1 1-3 0 1.5 1.5 0 0 1 3 0Zm-1 0a.5.5 0 1 0-1 0 .5.5 0 0 0 1 0ZM3 6a3 3 0 0 1 3-3h8a3 3 0 0 1 3 3v8a3 3 0 0 1-3 3H6a3 3 0 0 1-3-3V6Zm3-2a2 2 0 0 0-2 2v8c0 .37.1.72.28 1.02l4.67-4.59a1.5 1.5 0 0 1 2.1 0l4.67 4.59c.18-.3.28-.65.28-1.02V6a2 2 0 0 0-2-2H6Zm0 12h8a2 2 0 0 0 1.01-.27l-4.66-4.58a.5.5 0 0 0-.7 0l-4.66 4.58A2 2 0 0 0 6 16Z"/>
  </symbol>
  <symbol id="fluent-comment-20" viewBox="0 0 20 20">
    <path d="M10.48 13.84h4.92c.9 0 1.6-.71 1.6-1.56V5.57C17 4.7 16.3 4 15.4 4H4.6C3.7 4 3 4.71 3 5.57v6.7c0 .86.7 1.57 1.6 1.57h1.6V17l4.28-3.16ZM6.8 17.8a1 1 0 0 1-1.4-.2.98.98 0 0 1-.2-.59v-2.17h-.6A2.58 2.58 0 0 1 2 12.28V5.57A2.58 2.58 0 0 1 4.6 3h10.8C16.84 3 18 4.15 18 5.57v6.7a2.58 2.58 0 0 1-2.6 2.57h-4.59L6.8 17.8Z"/>
  </symbol>
  <symbol id="fluent-comment-add-20" viewBox="0 0 20 20">
    <path d="M19 5.5a4.5 4.5 0 1 1-9 0 4.5 4.5 0 0 1 9 0Zm-4-2a.5.5 0 0 0-1 0V5h-1.5a.5.5 0 0 0 0 1H14v1.5a.5.5 0 0 0 1 0V6h1.5a.5.5 0 0 0 0-1H15V3.5Zm2 8.78V10.4c.36-.18.7-.4 1-.66v2.54a2.58 2.58 0 0 1-2.6 2.56h-4.59L6.8 17.8a1 1 0 0 1-1.4-.2.98.98 0 0 1-.2-.59v-2.17h-.6A2.58 2.58 0 0 1 2 12.28V5.57A2.58 2.58 0 0 1 4.6 3h5c-.16.32-.3.65-.4 1H4.6C3.7 4 3 4.71 3 5.57v6.7c0 .86.7 1.57 1.6 1.57h1.6V17l4.28-3.16h4.92c.9 0 1.6-.71 1.6-1.56Z"/>
  </symbol>
  <symbol id="fluent-share-20" viewBox="0 0 20 20">
    <path d="M9.5 3a.5.5 0 0 1 0 1H6a2 2 0 0 0-2 2v8c0 1.1.9 2 2 2h8a2 2 0 0 0 2-2v-1.5a.5.5 0 0 1 1 0V14a3 3 0 0 1-3 3H6a3 3 0 0 1-3-3V6a3 3 0 0 1 3-3h3.5Zm3.8-.96a.5.5 0 0 1 .53.09l5 4.5a.5.5 0 0 1 0 .74l-5 4.5a.5.5 0 0 1-.83-.37V9.34c-1.4.13-2.67.78-3.7 1.6a9.55 9.55 0 0 0-2.2 2.5l-.15.28A.5.5 0 0 1 6 13.5c0-2.05.38-4.28 1.52-6.02A6.57 6.57 0 0 1 13 4.5V2.43a.5.5 0 0 1 .3-.39ZM14 5a.5.5 0 0 1-.5.5c-2.59 0-4.18 1.05-5.14 2.52a8.79 8.79 0 0 0-1.25 3.69 11 11 0 0 1 1.56-1.54 7.8 7.8 0 0 1 4.83-1.85c.28 0 .5.22.5.5v1.56L17.75 7 14 3.62V5Z"/>
  </symbol>
  <symbol id="fluent-save-20" viewBox="0 0 20 20">
    <path d="M3 5c0-1.1.9-2 2-2h8.38a2 2 0 0 1 1.41.59l1.62 1.62A2 2 0 0 1 17 6.62V15a2 2 0 0 1-2 2H5a2 2 0 0 1-2-2V5Zm2-1a1 1 0 0 0-1 1v10a1 1 0 0 0 1 1v-4.5c0-.83.67-1.5 1.5-1.5h7c.83 0 1.5.67 1.5 1.5V16a1 1 0 0 0 1-1V6.62a1 1 0 0 0-.3-.7L14.1 4.28a1 1 0 0 0-.71-.29H13v2.5c0 .83-.67 1.5-1.5 1.5h-4A1.5 1.5 0 0 1 6 6.5V4H5Zm2 0v2.5c0 .28.22.5.5.5h4a.5.5 0 0 0 .5-.5V4H7Zm7 12v-4.5a.5.5 0 0 0-.5-.5h-7a.5.5 0 0 0-.5.5V16h8Z"/>
  </symbol>
  <symbol id="fluent-undo-20" viewBox="0 0 20 20">
    <path d="M5 2.5a.5.5 0 0 0-1 0v4.9c0 .33.27.6.6.6h4.9a.5.5 0 0 0 0-1H5.9l3.48-3.02a4 4 0 0 1 5.25 6.04l-8.17 7.1a.5.5 0 0 0 .65.76l8.17-7.1a5 5 0 0 0-6.56-7.55L5 6.46V2.5Z"/>
  </symbol>
  <symbol id="fluent-redo-20" viewBox="0 0 20 20">
    <path d="M15 2.5a.5.5 0 0 1 1 0v4.9a.6.6 0 0 1-.6.6h-4.9a.5.5 0 0 1 0-1h3.6l-3.48-3.02a4 4 0 1 0-5.24 6.04l8.17 7.1a.5.5 0 1 1-.66.76l-8.17-7.1a5 5 0 1 1 6.56-7.55L15 6.46V2.5Z"/>
  </symbol>
  <symbol id="fluent-search-20" viewBox="0 0 20 20">
    <path d="M13.73 14.44a6.5 6.5 0 1 1 .7-.7l3.42 3.4a.5.5 0 0 1-.63.77l-.07-.06-3.42-3.41Zm-.71-.71A5.54 5.54 0 0 0 15 9.5a5.5 5.5 0 1 0-1.98 4.23Z"/>
  </symbol>
  <symbol id="fluent-chart-20" viewBox="0 0 20 20">
    <path d="M16.52 9c.26 0 .48-.2.48-.46V8.5A6.5 6.5 0 0 0 10.5 2h-.04a.47.47 0 0 0-.46.48V8.5c0 .28.22.5.5.5h6.02ZM11 3.02A5.5 5.5 0 0 1 15.98 8H11V3.02ZM8 9V5.1A5 5 0 0 0 9 15v1a6 6 0 0 1-.5-11.98c.28-.02.5.2.5.48V9a1 1 0 0 0 1 1h4.5c.28 0 .5.22.48.5a6 6 0 0 1-.06.5H10a2 2 0 0 1-2-2Zm9 1a1 1 0 0 0-1 1v7a1 1 0 1 0 2 0v-7a1 1 0 0 0-1-1Zm-3 2a1 1 0 0 0-1 1v5a1 1 0 1 0 2 0v-5a1 1 0 0 0-1-1Zm-4 3a1 1 0 1 1 2 0v3a1 1 0 1 1-2 0v-3Z"/>
  </symbol>
  <symbol id="fluent-bar-chart-20" viewBox="0 0 20 20">
    <path d="M5 3a2 2 0 0 0-2 2v10a2 2 0 1 0 4 0V5a2 2 0 0 0-2-2ZM4 5a1 1 0 0 1 2 0v10a1 1 0 1 1-2 0V5Zm4 3a2 2 0 1 1 4 0v7a2 2 0 1 1-4 0V8Zm2-1a1 1 0 0 0-1 1v7a1 1 0 1 0 2 0V8a1 1 0 0 0-1-1Zm3 4a2 2 0 1 1 4 0v4a2 2 0 1 1-4 0v-4Zm2-1a1 1 0 0 0-1 1v4a1 1 0 1 0 2 0v-4a1 1 0 0 0-1-1Z"/>
  </symbol>
  <symbol id="fluent-fill-color-20" viewBox="0 0 20 20">
    <path d="M9 2.5a.5.5 0 0 0-1 0V4c-.2.07-.4.19-.56.35L2.35 9.44a1.5 1.5 0 0 0 0 2.12L6.7 15.9a1.5 1.5 0 0 0 2.12 0l5.09-5.09a1.5 1.5 0 0 0 0-2.12L9.56 4.35A1.5 1.5 0 0 0 9 4V2.5ZM8 5.2v1.3a.5.5 0 0 0 1 0V5.2l4.19 4.2a.5.5 0 0 1 .08.6H3.2L8 5.2Zm-.6 9.99L3.2 11h9.1l-4.2 4.19a.5.5 0 0 1-.7 0Zm8.62-3.8a.6.6 0 0 0-1.04 0l-1.65 2.83a2.51 2.51 0 1 0 4.34 0l-1.65-2.83Zm-1.82 3.34 1.3-2.24 1.3 2.24a1.51 1.51 0 1 1-2.6 0Z"/>
  </symbol>
  <symbol id="fluent-font-size-20" viewBox="0 0 20 20">
    <path d="M13 3.5c.2 0 .4.13.47.32l3 8v.02l1.5 3.98a.5.5 0 1 1-.94.36l-1.38-3.68h-5.3l-1.38 3.68a.5.5 0 0 1-.93 0L6.96 13.5H4.04l-1.08 2.69a.5.5 0 1 1-.92-.38l1.2-2.98v-.03l1.8-4.49a.5.5 0 0 1 .92 0l1.8 4.5v.02l.73 1.79 1.04-2.78v-.03l3-7.99A.5.5 0 0 1 13 3.5Zm-2.28 8h4.56L13 5.42l-2.28 6.08Zm-4.16 1L5.5 9.85 4.44 12.5h2.12Z"/>
  </symbol>
  <symbol id="fluent-grid-20" viewBox="0 0 20 20">
    <path d="M7.5 11c.83 0 1.5.67 1.5 1.5v4c0 .83-.67 1.5-1.5 1.5h-4A1.5 1.5 0 0 1 2 16.5v-4c0-.83.67-1.5 1.5-1.5h4Zm9 0c.83 0 1.5.67 1.5 1.5v4c0 .83-.67 1.5-1.5 1.5h-4a1.5 1.5 0 0 1-1.5-1.5v-4c0-.83.67-1.5 1.5-1.5h4Zm-9 1h-4a.5.5 0 0 0-.5.5v4c0 .28.22.5.5.5h4a.5.5 0 0 0 .5-.5v-4a.5.5 0 0 0-.5-.5Zm9 0h-4a.5.5 0 0 0-.5.5v4c0 .28.22.5.5.5h4a.5.5 0 0 0 .5-.5v-4a.5.5 0 0 0-.5-.5Zm-9-10C8.33 2 9 2.67 9 3.5v4C9 8.33 8.33 9 7.5 9h-4A1.5 1.5 0 0 1 2 7.5v-4C2 2.67 2.67 2 3.5 2h4Zm9 0c.83 0 1.5.67 1.5 1.5v4c0 .83-.67 1.5-1.5 1.5h-4A1.5 1.5 0 0 1 11 7.5v-4c0-.83.67-1.5 1.5-1.5h4Zm-9 1h-4a.5.5 0 0 0-.5.5v4c0 .28.22.5.5.5h4a.5.5 0 0 0 .5-.5v-4a.5.5 0 0 0-.5-.5Zm9 0h-4a.5.5 0 0 0-.5.5v4c0 .28.22.5.5.5h4a.5.5 0 0 0 .5-.5v-4a.5.5 0 0 0-.5-.5Z"/>
  </symbol>
  <symbol id="fluent-filter-20" viewBox="0 0 20 20">
    <path d="M7.5 13h5a.5.5 0 0 1 .09 1H7.5a.5.5 0 0 1-.09-1h5.09-5Zm-2-4h9a.5.5 0 0 1 .09 1H5.5a.5.5 0 0 1-.09-1h9.09-9Zm-2-4h13a.5.5 0 0 1 .09 1H3.5a.5.5 0 0 1-.09-1H16.5h-13Z"/>
  </symbol>
  <symbol id="fluent-sort-20" viewBox="0 0 20 20">
    <path d="M2.35 7.35 5 4.71V16.5a.5.5 0 0 0 1 0V4.7l2.65 2.65a.5.5 0 0 0 .7-.7l-3.49-3.5A.5.5 0 0 0 5.5 3a.5.5 0 0 0-.39.18L1.65 6.65a.5.5 0 1 0 .7.7Zm15.3 5.3L15 15.29V3.5a.5.5 0 0 0-1 0v11.8l-2.65-2.65a.5.5 0 0 0-.7.7l3.49 3.5a.5.5 0 0 0 .36.15.5.5 0 0 0 .39-.18l3.46-3.47a.5.5 0 1 0-.7-.7Z"/>
  </symbol>
  <symbol id="fluent-calculator-20" viewBox="0 0 20 20">
    <path d="M8 11a1 1 0 1 1-2 0 1 1 0 0 1 2 0Zm0 3a1 1 0 1 1-2 0 1 1 0 0 1 2 0Zm5-2a1 1 0 1 0 0-2 1 1 0 0 0 0 2Zm1 2a1 1 0 1 1-2 0 1 1 0 0 1 2 0Zm-4-2a1 1 0 1 0 0-2 1 1 0 0 0 0 2Zm1 2a1 1 0 1 1-2 0 1 1 0 0 1 2 0ZM7.5 4C6.67 4 6 4.67 6 5.5v1C6 7.33 6.67 8 7.5 8h5c.83 0 1.5-.67 1.5-1.5v-1c0-.83-.67-1.5-1.5-1.5h-5ZM7 5.5c0-.28.22-.5.5-.5h5c.28 0 .5.22.5.5v1a.5.5 0 0 1-.5.5h-5a.5.5 0 0 1-.5-.5v-1Zm9 10a2.5 2.5 0 0 1-2.5 2.5h-7A2.5 2.5 0 0 1 4 15.5v-11A2.5 2.5 0 0 1 6.5 2h7A2.5 2.5 0 0 1 16 4.5v11Zm-1-11c0-.83-.67-1.5-1.5-1.5h-7C5.67 3 5 3.67 5 4.5v11c0 .83.67 1.5 1.5 1.5h7c.83 0 1.5-.67 1.5-1.5v-11Z"/>
  </symbol>
  <symbol id="fluent-formula-20" viewBox="0 0 20 20">
    <path d="M9.68 3.09c-.18-.04-.4-.04-.7 0-.52.08-.87.33-1.12.68-.26.37-.41.87-.46 1.45 0 .2-.04.87-.09 1.78H9.5a.5.5 0 0 1 0 1H7.26c-.13 2.25-.3 5.15-.36 5.94v.07c-.05.57-.11 1.25-.31 1.88-.21.67-.6 1.3-1.33 1.74-1.02.63-2.13.34-2.98-.08a.5.5 0 1 1 .44-.9c.75.38 1.44.49 2.02.13v-.01c.47-.27.73-.68.9-1.18.16-.52.2-1.1.26-1.7v-.03c.06-.8.23-3.64.36-5.86H4.5a.5.5 0 1 1 0-1h1.81a75.96 75.96 0 0 0 .1-1.84c.05-.7.24-1.4.63-1.96.4-.57 1-.97 1.78-1.1.4-.05.73-.05 1.05.01.33.06.6.2.89.36a.5.5 0 0 1-.52.86c-.22-.13-.39-.2-.56-.24Zm7.17 6.06c.2.2.2.5 0 .7l-3.22 3.22a162.5 162.5 0 0 0 1.4 2.47l.04.07c.06.12.11.2.15.25.06.09.12.15.25.22.21.03.28-.01.3-.03a3.56 3.56 0 0 0 .23-.27l.1-.13a.5.5 0 0 1 .8.6l-.06.08c-.11.16-.28.39-.5.54-.31.22-.69.27-1.14.17a1.69 1.69 0 0 1-.79-.6c-.08-.1-.14-.22-.2-.33l-.05-.08-.19-.32-1.07-1.9-3.05 3.04a.5.5 0 0 1-.7-.7l3.24-3.25a149.94 149.94 0 0 0-1.47-2.57 1.14 1.14 0 0 0-.32-.32c-.07-.02-.12-.01-.21.04-.12.08-.25.21-.39.4a.5.5 0 1 1-.8-.6c.16-.2.38-.47.66-.65a1.21 1.21 0 0 1 1.16-.1c.3.16.53.4.7.63a131.74 131.74 0 0 1 1.4 2.44l3.03-3.02c.2-.2.5-.2.7 0Z"/>
  </symbol>
  <symbol id="fluent-slide-text-20" viewBox="0 0 20 20">
    <path d="M5.5 7a.5.5 0 0 0 0 1h4a.5.5 0 0 0 0-1h-4Zm0 2.5a.5.5 0 0 0 0 1h7a.5.5 0 0 0 0-1h-7Zm-.5 3c0-.28.22-.5.5-.5h5a.5.5 0 0 1 0 1h-5a.5.5 0 0 1-.5-.5ZM4.5 4A2.5 2.5 0 0 0 2 6.5v7A2.5 2.5 0 0 0 4.5 16h11a2.5 2.5 0 0 0 2.5-2.5v-7A2.5 2.5 0 0 0 15.5 4h-11ZM3 6.5C3 5.67 3.67 5 4.5 5h11c.83 0 1.5.67 1.5 1.5v7c0 .83-.67 1.5-1.5 1.5h-11A1.5 1.5 0 0 1 3 13.5v-7Z"/>
  </symbol>
  <symbol id="fluent-slide-add-20" viewBox="0 0 20 20">
    <path d="M2 6.75A2.75 2.75 0 0 1 4.75 4h10.5A2.75 2.75 0 0 1 18 6.75v3.5a5.5 5.5 0 0 0-1-.65V6.75C17 5.78 16.22 5 15.25 5H4.75C3.78 5 3 5.78 3 6.75v6.5c0 .97.78 1.75 1.75 1.75h4.27c.03.34.1.68.19 1H4.75A2.75 2.75 0 0 1 2 13.25v-6.5Zm17 7.75a4.5 4.5 0 1 1-9 0 4.5 4.5 0 0 1 9 0Zm-4-2a.5.5 0 0 0-1 0V14h-1.5a.5.5 0 0 0 0 1H14v1.5a.5.5 0 0 0 1 0V15h1.5a.5.5 0 0 0 0-1H15v-1.5Z"/>
  </symbol>
  <symbol id="fluent-play-20" viewBox="0 0 20 20">
    <path d="M17.22 8.69a1.5 1.5 0 0 1 0 2.62l-10 5.5A1.5 1.5 0 0 1 5 15.5v-11A1.5 1.5 0 0 1 7.22 3.2l10 5.5Zm-.48 1.75a.5.5 0 0 0 0-.88l-10-5.5A.5.5 0 0 0 6 4.5v11c0 .38.4.62.74.44l10-5.5Z"/>
  </symbol>
  <symbol id="fluent-shapes-20" viewBox="0 0 20 20">
    <path d="M7.5 3a4.5 4.5 0 0 0-.5 8.97v1A5.5 5.5 0 1 1 12.98 7h-1A4.5 4.5 0 0 0 7.5 3Zm3 5A2.5 2.5 0 0 0 8 10.5v5a2.5 2.5 0 0 0 2.5 2.5h5a2.5 2.5 0 0 0 2.5-2.5v-5A2.5 2.5 0 0 0 15.5 8h-5ZM9 10.5c0-.83.67-1.5 1.5-1.5h5c.83 0 1.5.67 1.5 1.5v5c0 .83-.67 1.5-1.5 1.5h-5A1.5 1.5 0 0 1 9 15.5v-5Z"/>
  </symbol>
  <symbol id="fluent-color-20" viewBox="0 0 20 20">
    <path d="M9.75 6.5a.75.75 0 1 0 0-1.5.75.75 0 0 0 0 1.5Zm3 1a.75.75 0 1 0 0-1.5.75.75 0 0 0 0 1.5Zm2.5 1.5a.75.75 0 1 1-1.5 0 .75.75 0 0 1 1.5 0Zm-.75 3.75a.75.75 0 1 0 0-1.5.75.75 0 0 0 0 1.5ZM13.25 14a.75.75 0 1 1-1.5 0 .75.75 0 0 1 1.5 0Zm.45-11a7.82 7.82 0 0 0-7.93.17 9.6 9.6 0 0 0-3.25 3.89 5.9 5.9 0 0 0-.62 2.43c0 .8.27 1.57.94 2.12.61.5 1.14.74 1.66.77.51.02.92-.19 1.23-.37l.2-.12c.24-.15.44-.27.69-.35.28-.09.64-.12 1.16.04.19.06.3.14.38.24.09.1.16.26.2.47.06.21.09.46.1.76.02.1.02.24.03.37l.04.58c.05.67.17 1.44.57 2.14.42.7 1.1 1.3 2.2 1.68 1.6.54 3.07.1 4.21-.8a7.46 7.46 0 0 0 2.37-3.6C19.2 9.16 17.68 5.04 13.7 3ZM6.3 4.01a6.82 6.82 0 0 1 6.94-.14c3.5 1.8 4.87 5.4 3.69 9.25a6.46 6.46 0 0 1-2.04 3.1 3.33 3.33 0 0 1-3.26.64c-.9-.3-1.38-.76-1.66-1.24a4 4 0 0 1-.44-1.7l-.04-.54-.02-.41c-.03-.31-.06-.63-.13-.93-.07-.3-.2-.6-.4-.86-.22-.26-.5-.46-.87-.57a2.85 2.85 0 0 0-1.75-.03c-.38.12-.7.32-.95.47l-.14.09c-.29.16-.48.24-.68.23-.22-.01-.55-.12-1.08-.55-.38-.31-.57-.76-.57-1.34 0-.6.19-1.29.52-2.01A8.63 8.63 0 0 1 6.3 4.02Z"/>
  </symbol>
  <symbol id="fluent-text-effects-20" viewBox="0 0 20 20">
    <path d="M11.62 4.1a1.75 1.75 0 0 0-3.24 0l-3.02 7.46-.03.07-1.2 2.96a1.75 1.75 0 0 0 3.24 1.32L8.14 14h3.72l.77 1.9a1.75 1.75 0 0 0 3.24-1.3l-1.2-2.97a1.73 1.73 0 0 0-.03-.07l-3.02-7.47Zm-1.18 6.4L10 9.41l-.44 1.09h.88Zm.26-6.03 3.03 7.48v.03l1.22 2.99a.75.75 0 0 1-1.4.56L12.54 13H7.47l-1.02 2.53a.75.75 0 0 1-1.4-.56l1.21-2.99.02-.03L9.3 4.47a.75.75 0 0 1 1.39 0Zm1.22 7.03H8.08L10 6.75l1.92 4.75Z"/>
  </symbol>
  <symbol id="fluent-paste-20" viewBox="0 0 20 20">
    <path d="M4.5 4h1.59c.2.58.76 1 1.41 1h3c.65 0 1.2-.42 1.41-1h1.59c.28 0 .5.22.5.5v1a.5.5 0 0 0 1 0v-1c0-.83-.67-1.5-1.5-1.5h-1.59c-.2-.58-.76-1-1.41-1h-3c-.65 0-1.2.42-1.41 1H4.5C3.67 3 3 3.67 3 4.5v12c0 .83.67 1.5 1.5 1.5h3a.5.5 0 0 0 0-1h-3a.5.5 0 0 1-.5-.5v-12c0-.28.22-.5.5-.5Zm3 0a.5.5 0 0 1 0-1h3a.5.5 0 0 1 0 1h-3Zm3 3C9.67 7 9 7.67 9 8.5v8c0 .83.67 1.5 1.5 1.5h5c.83 0 1.5-.67 1.5-1.5v-8c0-.83-.67-1.5-1.5-1.5h-5ZM10 8.5c0-.28.22-.5.5-.5h5c.28 0 .5.22.5.5v8a.5.5 0 0 1-.5.5h-5a.5.5 0 0 1-.5-.5v-8Z"/>
  </symbol>
  <symbol id="fluent-cut-20" viewBox="0 0 20 20">
    <path d="M5.92 2.23a.5.5 0 0 0-.84.54L9.4 9.43l-1.92 2.96a3 3 0 1 0 .78.64L10 10.35l1.74 2.68a3 3 0 1 0 .78-.64L5.92 2.23ZM14 17a2 2 0 1 1 0-4 2 2 0 0 1 0 4ZM4 15a2 2 0 1 1 4 0 2 2 0 0 1-4 0Zm7.2-6.49-.6-.92 3.48-5.36a.5.5 0 0 1 .84.54l-3.73 5.74Z"/>
  </symbol>
  <symbol id="fluent-copy-20" viewBox="0 0 20 20">
    <path d="M7 7H5.5C4.67 7 4 7.67 4 8.5v6c0 .83.67 1.5 1.5 1.5h4c.65 0 1.2-.42 1.41-1h1.04a2.5 2.5 0 0 1-2.45 2h-4A2.5 2.5 0 0 1 3 14.5v-6A2.5 2.5 0 0 1 5.5 6H7v1Zm7.5-4A2.5 2.5 0 0 1 17 5.5v6a2.5 2.5 0 0 1-2.5 2.5h-4A2.5 2.5 0 0 1 8 11.5v-6A2.5 2.5 0 0 1 10.5 3h4Zm-4 1C9.67 4 9 4.67 9 5.5v6c0 .83.67 1.5 1.5 1.5h4c.83 0 1.5-.67 1.5-1.5v-6c0-.83-.67-1.5-1.5-1.5h-4Z"/>
  </symbol>
</svg>
