<!-- Canonical custom (non-vendored, or vendor-superseding) icon symbols shared -->
<!-- across UI Backlot compositions/ and surfaces/ HTML. Curated by hand where -->
<!-- noted below (tools/sync-inline-icons.mjs --write-custom-symbols only -->
<!-- covers the si-claude case, which it can regenerate automatically). -->
<!-- #si-claude: exact Claude sunburst mark, pinned from compositions/claude-desktop.html (pass-100, live-app-verified). -->
<!-- #f7-shared, #f7-applications, #f7-view-gallery, #f7-more: pinned from compositions/finder-window.html, verified against reference/macos/2026-07-06/finder-window-light/screenshot.png. The vendored framework7-icons glyphs for these ids (person_2, square_grid_2x2, rectangle_stack, ellipsis_circle) are generic Framework7 icons that do not match the real macOS Finder sidebar/toolbar glyphs (folder-with-person-badge "Shared", theatre-mask "Applications", monitor-with-filmstrip "Gallery", bare triple-dot "More"), so these pinned copies take priority over assets/icons/source-authentic/framework7/macos-symbols.svg. -->
<!-- #f7-battery: pinned from compositions/mac-menu-bar.html, verified against reference/macos/2026-07-06/menu-bar-light/screenshot.png. The vendored framework7-icons battery_100 glyph is a solid single-tone silhouette; the real macOS menu-bar battery icon is an outlined body with a separate inner fill level and nub, which this pinned copy reproduces. -->
<svg xmlns="http://www.w3.org/2000/svg" style="display:none" aria-hidden="true">
  <symbol id="si-claude" viewBox="0 0 24 24">
  <path d="m4.7144 15.9555 4.7174-2.6471.079-.2307-.079-.1275h-.2307l-.7893-.0486-2.6956-.0729-2.3375-.0971-2.2646-.1214-.5707-.1215-.5343-.7042.0546-.3522.4797-.3218.686.0608 1.5179.1032 2.2767.1578 1.6514.0972 2.4468.255h.3886l.0546-.1579-.1336-.0971-.1032-.0972L6.973 9.8356l-2.55-1.6879-1.3356-.9714-.7225-.4918-.3643-.4614-.1578-1.0078.6557-.7225.8803.0607.2246.0607.8925.686 1.9064 1.4754 2.4893 1.8336.3643.3035.1457-.1032.0182-.0728-.164-.2733-1.3539-2.4467-1.445-2.4893-.6435-1.032-.17-.6194c-.0607-.255-.1032-.4674-.1032-.7285L6.287.1335 6.6997 0l.9957.1336.419.3642.6192 1.4147 1.0018 2.2282 1.5543 3.0296.4553.8985.2429.8318.091.255h.1579v-.1457l.1275-1.706.2368-2.0947.2307-2.6957.0789-.7589.3764-.9107.7468-.4918.5828.2793.4797.686-.0668.4433-.2853 1.8517-.5586 2.9021-.3643 1.9429h.2125l.2429-.2429.9835-1.3053 1.6514-2.0643.7286-.8196.85-.9046.5464-.4311h1.0321l.759 1.1293-.34 1.1657-1.0625 1.3478-.8804 1.1414-1.2628 1.7-.7893 1.36.0729.1093.1882-.0183 2.8535-.607 1.5421-.2794 1.8396-.3157.8318.3886.091.3946-.3278.8075-1.967.4857-2.3072.4614-3.4364.8136-.0425.0304.0486.0607 1.5482.1457.6618.0364h1.621l3.0175.2247.7892.522.4736.6376-.079.4857-1.2142.6193-1.6393-.3886-3.825-.9107-1.3113-.3279h-.1822v.1093l1.0929 1.0686 2.0035 1.8092 2.5075 2.3314.1275.5768-.3218.4554-.34-.0486-2.2039-1.6575-.85-.7468-1.9246-1.621h-.1275v.17l.4432.6496 2.3436 3.5214.1214 1.0807-.17.3521-.6071.2125-.6679-.1214-1.3721-1.9246L14.38 17.959l-1.1414-1.9428-.1397.079-.674 7.2552-.3156.3703-.7286.2793-.6071-.4614-.3218-.7468.3218-1.4753.3886-1.9246.3157-1.53.2853-1.9004.17-.6314-.0121-.0425-.1397.0182-1.4328 1.9672-2.1796 2.9446-1.7243 1.8456-.4128.164-.7164-.3704.0667-.6618.4008-.5889 2.386-3.0357 1.4389-1.882.929-1.0868-.0062-.1579h-.0546l-6.3385 4.1164-1.1293.1457-.4857-.4554.0608-.7467.2307-.2429 1.9064-1.3114Z"/>
  </symbol>
  <symbol id="f7-shared" viewBox="0 0 56 56">
    <path fill="currentColor" d="M45.556 30.91C51.272 30.91 56 26.222 56 20.466c0-5.715-4.728-10.443-10.444-10.443c-5.735 0-10.443 4.728-10.443 10.443c0 5.756 4.708 10.444 10.443 10.444M0 42.196c0 4.255 2.18 6.373 6.455 6.373h34.928c3.68 0 5.818-2.138 5.818-6.373v-8.573a11 11 0 0 1-1.645.123c-.575 0-1.11-.04-1.665-.102v8.408c0 2.117-1.15 3.207-3.186 3.207H6.517c-2.056 0-3.207-1.09-3.207-3.228v-16.96h29.788a11.4 11.4 0 0 1-.699-3.104H3.31v-5.18c0-2.036 1.09-3.064 3.043-3.064h4.605c1.357 0 2.18.329 3.228 1.233l1.254 1.028c1.336 1.11 2.426 1.522 4.461 1.522h12.746a12 12 0 0 1 1.234-3.31H20.764c-1.398 0-2.241-.35-3.27-1.213l-1.253-1.049c-1.357-1.13-2.405-1.52-4.44-1.52H5.673C2.076 10.413 0 12.468 0 16.621Zm45.536-21.113c-1.892 0-3.351-1.563-3.351-3.7c0-1.913 1.48-3.537 3.35-3.537c1.893 0 3.372 1.624 3.372 3.536c0 2.138-1.48 3.7-3.371 3.7m.02 7.421c-3.001 0-5.386-1.542-6.043-2.96v-.103c.678-1.274 2.775-2.693 6.043-2.693c3.27 0 5.366 1.418 6.024 2.714v.082c-.678 1.439-3.022 2.96-6.024 2.96"/>
  </symbol>
  <symbol id="f7-applications" viewBox="0 0 24 24">
    <path d="M8.8086 14.9194l6.1107-11.0368c.0837-.1513.1682-.302.2437-.4584.0685-.142.1267-.2854.1646-.4403.0803-.3259.0588-.6656-.066-.9767-.1238-.3095-.3417-.5678-.6201-.7355a1.4175 1.4175 0 0 0-.921-.1924c-.3207.043-.6135.1935-.8443.4288-.1094.1118-.1996.2361-.2832.369-.092.1463-.175.2979-.259.4492l-.3864.6979-.3865-.6979c-.0837-.1515-.1667-.303-.2587-.4492-.0837-.1329-.1739-.2572-.2835-.369-.2305-.2353-.5233-.3857-.844-.429a1.4181 1.4181 0 0 0-.921.1926c-.2784.1677-.4964.426-.6203.7355-.1246.311-.1461.6508-.066.9767.038.155.0962.2984.1648.4403.0753.1564.1598.307.2437.4584l1.248 2.2543-4.8625 8.7825H2.0295c-.1676 0-.3351-.0007-.5026.0092-.1522.009-.3004.0284-.448.0714-.3108.0906-.5822.2798-.7783.548-.195.2665-.3006.5929-.3006.9279 0 .3352.1057.6612.3006.9277.196.2683.4675.4575.7782.548.1477.043.296.0623.4481.0715.1675.01.335.009.5026.009h13.0974c.0171-.0357.059-.1294.1-.2697.415-1.4151-.6156-2.843-2.0347-2.843zM3.113 18.5418l-.7922 1.5008c-.0818.1553-.1644.31-.2384.4705-.067.1458-.124.293-.1611.452-.0785.3346-.0576.6834.0645 1.0029.1212.3175.3346.583.607.7549.2727.172.5891.2416.9013.1975.3139-.044.6005-.1986.8263-.4402.1072-.1148.1954-.2424.2772-.3787.0902-.1503.1714-.3059.2535-.4612L6 19.4636c-.0896-.149-.9473-1.4704-2.887-.9218m20.5861-3.0056a1.4707 1.4707 0 0 0-.779-.5407c-.1476-.0425-.2961-.0616-.4483-.0705-.1678-.0099-.3352-.0091-.503-.0091H18.648l-4.3891-7.817c-.6655.7005-.9632 1.485-1.0773 2.1976-.1655 1.0333.0367 2.0934.546 3.0004l5.2741 9.3933c.084.1494.167.299.2591.4435.0837.131.1739.2537.2836.364.231.2323.5238.3809.8449.4232.3192.0424.643-.0244.9217-.1899.2784-.1653.4968-.4204.621-.7257.1246-.3072.146-.6425.0658-.9641-.0381-.1529-.0962-.2945-.165-.4346-.0753-.1543-.1598-.303-.2438-.4524l-1.216-2.1662h1.596c.1677 0 .3351.0009.5029-.009.1522-.009.3007-.028.4483-.0705a1.4707 1.4707 0 0 0 .779-.5407A1.5386 1.5386 0 0 0 24 16.452a1.539 1.539 0 0 0-.3009-.9158Z"/>
  </symbol>
  <symbol id="f7-view-gallery" viewBox="0 0 56 56"><rect x="4" y="7" width="48" height="31" rx="7" fill="none" stroke="currentColor" stroke-width="4"/><g fill="currentColor"><rect x="5" y="45" width="7" height="7" rx="1.5"/><rect x="15.5" y="45" width="7" height="7" rx="1.5"/><rect x="26" y="45" width="7" height="7" rx="1.5"/><rect x="36.5" y="45" width="7" height="7" rx="1.5"/><rect x="47" y="45" width="7" height="7" rx="1.5"/></g></symbol>
  <symbol id="f7-more" viewBox="0 0 56 56">
    <circle cx="14" cy="28" r="3.6" fill="currentColor"/>
    <circle cx="28" cy="28" r="3.6" fill="currentColor"/>
    <circle cx="42" cy="28" r="3.6" fill="currentColor"/>
  </symbol>
  <symbol id="f7-battery" viewBox="0 0 56 56">
    <rect x="2" y="14" width="46" height="28" rx="7" fill="none" stroke="currentColor" stroke-width="3.5"/>
    <rect x="8" y="20" width="27" height="16" rx="2.5" fill="currentColor"/>
    <path d="M 52.7216 32.4835 C 54.1214 32.3949 56 30.6051 56 27.8937 C 56 25.2000 54.1214 23.4101 52.7216 23.3215 Z" fill="currentColor"/>
  </symbol>
</svg>
