<!-- Generated by tools/build-icon-sprites.mjs. Do not edit by hand. -->
<!-- Source: framework7-icons@5.0.5 (MIT) - https://github.com/framework7io/framework7-icons -->
<!-- Curated subset for UI Backlot macos surfaces; see docs/asset-policy.md -->
<svg xmlns="http://www.w3.org/2000/svg" style="display:none" aria-hidden="true">
  <symbol id="f7-clock" viewBox="0 0 56 56">
    <path d="M 27.9999 51.9063 C 41.0546 51.9063 51.9063 41.0781 51.9063 28 C 51.9063 14.9453 41.0312 4.0937 27.9765 4.0937 C 14.8983 4.0937 4.0937 14.9453 4.0937 28 C 4.0937 41.0781 14.9218 51.9063 27.9999 51.9063 Z M 27.9999 47.9219 C 16.9374 47.9219 8.1014 39.0625 8.1014 28 C 8.1014 16.9609 16.9140 8.0781 27.9765 8.0781 C 39.0155 8.0781 47.8983 16.9609 47.9219 28 C 47.9454 39.0625 39.0390 47.9219 27.9999 47.9219 Z M 15.7187 30.5312 L 27.9765 30.5312 C 28.8905 30.5312 29.6171 29.8281 29.6171 28.8906 L 29.6171 13.0937 C 29.6171 12.1797 28.8905 11.4766 27.9765 11.4766 C 27.0624 11.4766 26.3593 12.1797 26.3593 13.0937 L 26.3593 27.2734 L 15.7187 27.2734 C 14.8046 27.2734 14.1014 27.9766 14.1014 28.8906 C 14.1014 29.8281 14.8046 30.5312 15.7187 30.5312 Z"/>
  </symbol>
  <symbol id="f7-shared" viewBox="0 0 56 56">
    <path d="M 38.4460 29.2320 C 43.2316 29.2320 47.1322 24.9692 47.1322 19.7814 C 47.1322 14.6540 43.2514 10.5922 38.4460 10.5922 C 33.6803 10.5922 29.7593 14.7143 29.7593 19.8216 C 29.7794 24.9893 33.6803 29.2320 38.4460 29.2320 Z M 15.2818 29.6744 C 19.4240 29.6744 22.8222 25.9545 22.8222 21.3900 C 22.8222 16.9262 19.4642 13.3269 15.2818 13.3269 C 11.1396 13.3269 7.7213 16.9865 7.7414 21.4303 C 7.7615 25.9746 11.1396 29.6744 15.2818 29.6744 Z M 38.4460 26.1958 C 35.5101 26.1958 32.9966 23.3807 32.9966 19.8216 C 32.9966 16.3229 35.4699 13.6285 38.4460 13.6285 C 41.4419 13.6285 43.8950 16.2827 43.8950 19.7814 C 43.8950 23.3405 41.4217 26.1958 38.4460 26.1958 Z M 15.2818 26.6783 C 12.8287 26.6783 10.7375 24.3257 10.7375 21.4303 C 10.7375 18.5951 12.8086 16.3229 15.2818 16.3229 C 17.8154 16.3229 19.8462 18.5549 19.8462 21.3900 C 19.8462 24.3257 17.7550 26.6783 15.2818 26.6783 Z M 4.1019 48.1131 L 19.8865 48.1131 C 18.9213 47.5702 18.1773 46.3637 18.3181 45.1372 L 3.5993 45.1372 C 3.1971 45.1372 2.9960 44.9763 2.9960 44.5943 C 2.9960 39.6076 8.6865 34.9426 15.2617 34.9426 C 17.7953 34.9426 20.0674 35.5458 22.0179 36.6920 C 22.6613 35.8877 23.3852 35.1839 24.2900 34.5606 C 21.6961 32.8514 18.5795 31.9667 15.2617 31.9667 C 6.8366 31.9667 0 38.0794 0 44.7752 C 0 47.0072 1.3673 48.1131 4.1019 48.1131 Z M 25.8182 48.1131 L 51.0736 48.1131 C 54.4113 48.1131 56 47.1077 56 44.8959 C 56 39.6277 49.3440 32.0069 38.4460 32.0069 C 27.5274 32.0069 20.8717 39.6277 20.8717 44.8959 C 20.8717 47.1077 22.4602 48.1131 25.8182 48.1131 Z M 24.8530 45.0769 C 24.3302 45.0769 24.1091 44.9361 24.1091 44.5138 C 24.1091 41.2162 29.2164 35.0431 38.4460 35.0431 C 47.6552 35.0431 52.7624 41.2162 52.7624 44.5138 C 52.7624 44.9361 52.5614 45.0769 52.0384 45.0769 Z"/>
  </symbol>
  <symbol id="f7-applications" viewBox="0 0 56 56">
    <path d="M 10.9023 26.0664 L 21.5898 26.0664 C 24.5663 26.0664 26.0663 24.5664 26.0663 21.4727 L 26.0663 10.9961 C 26.0663 7.9023 24.5663 6.4258 21.5898 6.4258 L 10.9023 6.4258 C 7.9257 6.4258 6.4257 7.9023 6.4257 10.9961 L 6.4257 21.4727 C 6.4257 24.5664 7.9257 26.0664 10.9023 26.0664 Z M 34.4335 26.0664 L 45.0976 26.0664 C 48.0976 26.0664 49.5743 24.5664 49.5743 21.4727 L 49.5743 10.9961 C 49.5743 7.9023 48.0976 6.4258 45.0976 6.4258 L 34.4335 6.4258 C 31.4570 6.4258 29.9570 7.9023 29.9570 10.9961 L 29.9570 21.4727 C 29.9570 24.5664 31.4570 26.0664 34.4335 26.0664 Z M 10.9492 22.7617 C 10.1288 22.7617 9.7304 22.3398 9.7304 21.4727 L 9.7304 10.9961 C 9.7304 10.1523 10.1288 9.7305 10.9492 9.7305 L 21.5195 9.7305 C 22.3398 9.7305 22.7617 10.1523 22.7617 10.9961 L 22.7617 21.4727 C 22.7617 22.3398 22.3398 22.7617 21.5195 22.7617 Z M 34.4804 22.7617 C 33.6601 22.7617 33.2617 22.3398 33.2617 21.4727 L 33.2617 10.9961 C 33.2617 10.1523 33.6601 9.7305 34.4804 9.7305 L 45.0742 9.7305 C 45.8710 9.7305 46.2695 10.1523 46.2695 10.9961 L 46.2695 21.4727 C 46.2695 22.3398 45.8710 22.7617 45.0742 22.7617 Z M 10.9023 49.5742 L 21.5898 49.5742 C 24.5663 49.5742 26.0663 48.0977 26.0663 45.0039 L 26.0663 34.5039 C 26.0663 31.4336 24.5663 29.9336 21.5898 29.9336 L 10.9023 29.9336 C 7.9257 29.9336 6.4257 31.4336 6.4257 34.5039 L 6.4257 45.0039 C 6.4257 48.0977 7.9257 49.5742 10.9023 49.5742 Z M 34.4335 49.5742 L 45.0976 49.5742 C 48.0976 49.5742 49.5743 48.0977 49.5743 45.0039 L 49.5743 34.5039 C 49.5743 31.4336 48.0976 29.9336 45.0976 29.9336 L 34.4335 29.9336 C 31.4570 29.9336 29.9570 31.4336 29.9570 34.5039 L 29.9570 45.0039 C 29.9570 48.0977 31.4570 49.5742 34.4335 49.5742 Z M 10.9492 46.2695 C 10.1288 46.2695 9.7304 45.8477 9.7304 45.0039 L 9.7304 34.5274 C 9.7304 33.6602 10.1288 33.2383 10.9492 33.2383 L 21.5195 33.2383 C 22.3398 33.2383 22.7617 33.6602 22.7617 34.5274 L 22.7617 45.0039 C 22.7617 45.8477 22.3398 46.2695 21.5195 46.2695 Z M 34.4804 46.2695 C 33.6601 46.2695 33.2617 45.8477 33.2617 45.0039 L 33.2617 34.5274 C 33.2617 33.6602 33.6601 33.2383 34.4804 33.2383 L 45.0742 33.2383 C 45.8710 33.2383 46.2695 33.6602 46.2695 34.5274 L 46.2695 45.0039 C 46.2695 45.8477 45.8710 46.2695 45.0742 46.2695 Z"/>
  </symbol>
  <symbol id="f7-desktop" viewBox="0 0 56 56">
    <path d="M 7.7148 49.5742 L 48.2852 49.5742 C 53.1836 49.5742 55.6446 47.1367 55.6446 42.3086 L 55.6446 13.6914 C 55.6446 8.8633 53.1836 6.4258 48.2852 6.4258 L 7.7148 6.4258 C 2.8398 6.4258 .3554 8.8398 .3554 13.6914 L .3554 42.3086 C .3554 47.1602 2.8398 49.5742 7.7148 49.5742 Z M 4.1288 13.8789 C 4.1288 11.4414 5.4413 10.1992 7.7851 10.1992 L 48.2147 10.1992 C 50.5350 10.1992 51.8708 11.4414 51.8708 13.8789 L 51.8708 21.1914 L 4.1288 21.1914 Z M 11.7929 15.6836 C 11.7929 14.5586 10.8554 13.5742 9.7070 13.5742 C 8.5351 13.5742 7.5976 14.5586 7.5976 15.6836 C 7.5976 16.7852 8.5351 17.7696 9.7070 17.7696 C 10.8554 17.7696 11.7929 16.7852 11.7929 15.6836 Z M 18.7070 15.6836 C 18.7070 14.5586 17.7695 13.5742 16.6210 13.5742 C 15.4726 13.5742 14.5351 14.5586 14.5351 15.6836 C 14.5351 16.7852 15.4726 17.7696 16.6210 17.7696 C 17.7695 17.7696 18.7070 16.7852 18.7070 15.6836 Z M 25.6210 15.6836 C 25.6210 14.5586 24.6835 13.5742 23.5351 13.5742 C 22.3866 13.5742 21.4492 14.5586 21.4492 15.6836 C 21.4492 16.7852 22.3866 17.7696 23.5351 17.7696 C 24.6835 17.7696 25.6210 16.7852 25.6210 15.6836 Z M 7.7851 45.8008 C 5.4413 45.8008 4.1288 44.5586 4.1288 42.1211 L 4.1288 24.6133 L 51.8708 24.6133 L 51.8708 42.1211 C 51.8708 44.5586 50.5350 45.8008 48.2147 45.8008 Z"/>
  </symbol>
  <symbol id="f7-documents" viewBox="0 0 56 56">
    <path d="M 15.5547 53.125 L 40.4453 53.125 C 45.2969 53.125 47.7109 50.6640 47.7109 45.7890 L 47.7109 24.5078 C 47.7109 21.4844 47.3828 20.1718 45.5078 18.2500 L 32.5703 5.1015 C 30.7891 3.2734 29.3359 2.8750 26.6875 2.8750 L 15.5547 2.8750 C 10.7266 2.8750 8.2891 5.3594 8.2891 10.2344 L 8.2891 45.7890 C 8.2891 50.6875 10.7266 53.125 15.5547 53.125 Z M 15.7422 49.3515 C 13.3281 49.3515 12.0625 48.0625 12.0625 45.7187 L 12.0625 10.3047 C 12.0625 7.9844 13.3281 6.6484 15.7656 6.6484 L 26.1718 6.6484 L 26.1718 20.2656 C 26.1718 23.2187 27.6718 24.6718 30.5781 24.6718 L 43.9375 24.6718 L 43.9375 45.7187 C 43.9375 48.0625 42.6953 49.3515 40.2578 49.3515 Z M 31.0000 21.1328 C 30.0859 21.1328 29.7109 20.7578 29.7109 19.8203 L 29.7109 7.3750 L 43.2109 21.1328 Z"/>
  </symbol>
  <symbol id="f7-doc-text" viewBox="0 0 56 56">
    <path d="M 15.5547 53.125 L 40.4453 53.125 C 45.2969 53.125 47.7109 50.6640 47.7109 45.7890 L 47.7109 24.5078 C 47.7109 21.4844 47.3828 20.1718 45.5078 18.2500 L 32.5703 5.1015 C 30.7891 3.2734 29.3359 2.8750 26.6875 2.8750 L 15.5547 2.8750 C 10.7266 2.8750 8.2891 5.3594 8.2891 10.2344 L 8.2891 45.7890 C 8.2891 50.6875 10.7266 53.125 15.5547 53.125 Z M 15.7422 49.3515 C 13.3281 49.3515 12.0625 48.0625 12.0625 45.7187 L 12.0625 10.3047 C 12.0625 7.9844 13.3281 6.6484 15.7656 6.6484 L 26.1718 6.6484 L 26.1718 20.2656 C 26.1718 23.2187 27.6718 24.6718 30.5781 24.6718 L 43.9375 24.6718 L 43.9375 45.7187 C 43.9375 48.0625 42.6953 49.3515 40.2578 49.3515 Z M 31.0000 21.1328 C 30.0859 21.1328 29.7109 20.7578 29.7109 19.8203 L 29.7109 7.3750 L 43.2109 21.1328 Z M 36.6250 31.1172 L 18.8359 31.1172 C 17.9922 31.1172 17.3828 31.7500 17.3828 32.5469 C 17.3828 33.3672 17.9922 34.0000 18.8359 34.0000 L 36.6250 34.0000 C 37.4453 34.0000 38.0781 33.3672 38.0781 32.5469 C 38.0781 31.7500 37.4453 31.1172 36.6250 31.1172 Z M 36.6250 39.2969 L 18.8359 39.2969 C 17.9922 39.2969 17.3828 39.9531 17.3828 40.7734 C 17.3828 41.5703 17.9922 42.1797 18.8359 42.1797 L 36.6250 42.1797 C 37.4453 42.1797 38.0781 41.5703 38.0781 40.7734 C 38.0781 39.9531 37.4453 39.2969 36.6250 39.2969 Z"/>
  </symbol>
  <symbol id="f7-downloads" viewBox="0 0 56 56">
    <path d="M 27.9999 51.9063 C 41.0546 51.9063 51.9063 41.0781 51.9063 28 C 51.9063 14.9453 41.0312 4.0937 27.9765 4.0937 C 14.8983 4.0937 4.0937 14.9453 4.0937 28 C 4.0937 41.0781 14.9218 51.9063 27.9999 51.9063 Z M 27.9999 47.9219 C 16.9374 47.9219 8.1014 39.0625 8.1014 28 C 8.1014 16.9609 16.9140 8.0781 27.9765 8.0781 C 39.0155 8.0781 47.8983 16.9609 47.9219 28 C 47.9454 39.0625 39.0390 47.9219 27.9999 47.9219 Z M 27.9999 40.1172 C 28.5155 40.1172 28.9140 39.8828 29.3827 39.4375 L 37.3046 31.5156 C 37.6327 31.2109 37.7968 30.7890 37.7968 30.2968 C 37.7968 29.3359 37.0468 28.6094 36.0858 28.6094 C 35.5702 28.6094 35.1483 28.7968 34.8436 29.1250 L 31.9374 32.0547 L 29.5702 34.9141 L 29.7577 29.9453 L 29.7577 17.7109 C 29.7577 16.7031 29.0077 15.9531 27.9999 15.9531 C 26.9687 15.9531 26.2421 16.7031 26.2421 17.7109 L 26.2421 29.9453 L 26.4296 34.8672 L 24.0624 32.0547 L 21.1562 29.1250 C 20.8514 28.8203 20.4062 28.6094 19.9140 28.6094 C 18.9530 28.6094 18.2265 29.3359 18.2265 30.2968 C 18.2265 30.7890 18.3671 31.2109 18.6718 31.5156 L 26.6405 39.4375 C 27.1093 39.9063 27.4843 40.1172 27.9999 40.1172 Z"/>
  </symbol>
  <symbol id="f7-folder" viewBox="0 0 56 56">
    <path d="M 8.4530 49.7500 L 48.2732 49.7500 C 52.4684 49.7500 54.9064 47.3125 54.9064 42.4844 L 54.9064 17.8047 C 54.9064 12.9766 52.4454 10.5625 47.5700 10.5625 L 24.7655 10.5625 C 23.1718 10.5625 22.2108 10.1641 21.0389 9.1797 L 19.6093 7.9844 C 18.0624 6.6953 16.8671 6.2500 14.5468 6.2500 L 7.5624 6.2500 C 3.4608 6.2500 1.0936 8.5937 1.0936 13.3281 L 1.0936 42.4844 C 1.0936 47.3359 3.5780 49.7500 8.4530 49.7500 Z M 4.8671 13.5156 C 4.8671 11.1953 6.1093 10.0235 8.3358 10.0235 L 13.5858 10.0235 C 15.1327 10.0235 16.0702 10.3984 17.2655 11.4297 L 18.6952 12.6015 C 20.2186 13.8672 21.4608 14.3359 23.7811 14.3359 L 47.5000 14.3359 C 49.8203 14.3359 51.1326 15.5781 51.1326 18.0156 L 51.1326 19.4219 L 4.8671 19.4219 Z M 8.5233 45.9766 C 6.1796 45.9766 4.8671 44.7344 4.8671 42.2969 L 4.8671 22.9610 L 51.1326 22.9610 L 51.1326 42.3203 C 51.1326 44.7344 49.8203 45.9766 47.5000 45.9766 Z"/>
  </symbol>
  <symbol id="f7-folder-fill" viewBox="0 0 56 56">
    <path d="M 47.5700 10.5625 L 24.7655 10.5625 C 23.1718 10.5625 22.2108 10.1641 21.0389 9.1797 L 19.6093 7.9844 C 18.0624 6.6953 16.8671 6.2500 14.5468 6.2500 L 7.5624 6.2500 C 3.4608 6.2500 1.0936 8.5937 1.0936 13.3281 L 1.0936 19.5859 L 54.9064 19.5859 L 54.9064 17.8047 C 54.9064 12.9766 52.4454 10.5625 47.5700 10.5625 Z M 8.4530 49.7500 L 48.2732 49.7500 C 52.4684 49.7500 54.9064 47.3125 54.9064 42.4844 L 54.9064 22.7735 L 1.0936 22.7735 L 1.0936 42.4844 C 1.0936 47.3359 3.5780 49.7500 8.4530 49.7500 Z"/>
  </symbol>
  <symbol id="f7-icloud" viewBox="0 0 56 56">
    <path d="M 12.2617 45.7539 L 41.3476 45.7539 C 49.0352 45.7539 54.7539 39.9180 54.7539 32.6758 C 54.7539 25.2227 48.6603 19.7617 40.7148 19.7617 C 37.7851 13.9727 32.3476 10.2461 25.5742 10.2461 C 16.7617 10.2461 9.4960 17.1367 8.7226 25.8555 C 4.4804 27.0742 1.2461 30.7773 1.2461 35.7227 C 1.2461 41.2539 5.2773 45.7539 12.2617 45.7539 Z M 12.2148 41.9805 C 7.4101 41.9805 4.9960 39.3086 4.9960 35.8398 C 4.9960 33.0039 6.6367 30.4961 10.6211 29.4180 C 11.9101 29.0898 12.3789 28.4805 12.4960 27.1445 C 13.0351 19.5039 18.7773 13.9961 25.5742 13.9961 C 30.8476 13.9961 34.9960 16.8789 37.5273 22.0820 C 38.0664 23.2070 38.7695 23.6055 40.1523 23.6055 C 47.0898 23.6055 51.0037 27.8008 51.0037 32.7929 C 51.0037 37.9024 46.9256 41.9805 41.5820 41.9805 Z"/>
  </symbol>
  <symbol id="f7-settings" viewBox="0 0 56 56">
    <path d="M18.2918704,0.682944646 L20.3171289,2.92622342 C22.5361373,5.38410946 26.1397265,5.3776124 28.3528693,2.92622342 L30.2521549,0.822478633 C32.5839645,1.4499386 34.7753833,2.41991367 36.7691418,3.67513451 L36.6322262,6.35564535 C36.4633143,9.66270916 39.0160307,12.2062374 42.3143528,12.0377719 L44.7391942,11.9139205 C45.970889,14.0228998 46.8900976,16.3366849 47.4333262,18.7917819 L45.7437747,20.3171289 C43.2858887,22.5361373 43.2923858,26.1397265 45.7437747,28.3528693 L47.3039836,29.7614443 C46.6873969,32.2638048 45.6782881,34.6116668 44.3457025,36.735985 L42.3143528,36.6322262 C39.007289,36.4633143 36.4637608,39.0160307 36.6322262,42.3143528 L36.7359799,44.3457057 C34.6116668,45.6782881 32.2638048,46.6873969 29.7614443,47.3039836 L28.3528693,45.7437747 C26.1338609,43.2858887 22.5302717,43.2923858 20.3171289,45.7437747 L18.7917819,47.4333262 C16.3366849,46.8900976 14.0228998,45.970889 11.9139205,44.7391942 L12.0377719,42.3143528 C12.2066839,39.007289 9.65396742,36.4637608 6.35564535,36.6322262 L3.67513117,36.7691365 C2.41991367,34.7753833 1.4499386,32.5839645 0.822478633,30.2521549 L2.92622342,28.3528693 C5.38410946,26.1338609 5.3776124,22.5302717 2.92622342,20.3171289 L0.682944646,18.2918704 C1.23975257,16.0094974 2.12293759,13.8550207 3.28024752,11.8806926 L6.35564535,12.0377719 C9.66270916,12.2066839 12.2062374,9.65396742 12.0377719,6.35564535 L11.8806926,3.28024752 C13.8550207,2.12293759 16.0094974,1.23975257 18.2918704,0.682944646 Z M16.7256456,4.44999867 C16.3680614,4.5830738 16.0143918,4.72596655 15.6649839,4.87849119 L15.6911683,5.3911466 C15.9929207,11.2990434 11.3040265,15.9931752 5.39114661,15.6911683 L4.8784912,15.6649838 C4.72596656,16.0143918 4.58307381,16.3680614 4.44999868,16.7256456 L4.82312058,17.0625044 C9.21400567,21.0266472 9.2177092,27.6614485 4.82312058,31.6289348 L4.65050066,31.7847781 C4.8175234,32.1991992 4.99787387,32.6079553 5.19123643,33.0104816 L5.39114661,33.000271 C11.2419278,32.7014358 15.9022991,37.2972177 15.69853,43.1291478 C16.1923007,43.3436519 16.6945117,43.5389223 17.2041918,43.7144479 C21.0763433,39.5916597 27.3599325,39.5262017 31.3077432,43.5279548 C31.8779091,43.3144137 32.4380042,43.0759167 32.9866081,42.8132437 C32.9594643,37.2979481 37.2937012,32.9592904 42.8132466,32.9866016 C43.0759195,32.4379975 43.3144164,31.8779023 43.5279572,31.3077365 C39.529445,27.3629141 39.5883149,21.0793847 43.7144475,17.2041904 C43.5389218,16.6945104 43.3436515,16.1922996 43.1291474,15.6985291 C37.3945193,15.8988384 32.8475535,11.3933767 32.9897182,5.66905791 L33.010482,5.1912368 C32.6079555,4.99787406 32.1991992,4.8175235 31.7847781,4.65050071 L31.6289348,4.82312057 C27.6647921,9.21400566 21.0299908,9.2177092 17.0625045,4.82312057 L16.7256456,4.44999867 Z M24,15 C28.9705627,15 33,19.0294373 33,24 C33,28.9705627 28.9705627,33 24,33 C19.0294373,33 15,28.9705627 15,24 C15,19.0294373 19.0294373,15 24,15 Z M24,18 C20.6862915,18 18,20.6862915 18,24 C18,27.3137085 20.6862915,30 24,30 C27.3137085,30 30,27.3137085 30,24 C30,20.6862915 27.3137085,18 24,18 Z" transform="translate(4 4)"/>
  </symbol>
  <symbol id="f7-search" viewBox="0 0 56 56">
    <path d="M 23.9570 41.7695 C 27.8476 41.7695 31.4804 40.5039 34.4336 38.3945 L 45.5429 49.5039 C 46.0585 50.0195 46.7382 50.2774 47.4414 50.2774 C 48.9648 50.2774 50.0664 49.1055 50.0664 47.6055 C 50.0664 46.9023 49.8322 46.2461 49.3162 45.7305 L 38.2773 34.6679 C 40.5976 31.6211 41.9804 27.8476 41.9804 23.7461 C 41.9804 13.8320 33.8710 5.7226 23.9570 5.7226 C 14.0195 5.7226 5.9336 13.8320 5.9336 23.7461 C 5.9336 33.6601 14.0195 41.7695 23.9570 41.7695 Z M 23.9570 37.8789 C 16.1992 37.8789 9.8242 31.4805 9.8242 23.7461 C 9.8242 16.0117 16.1992 9.6133 23.9570 9.6133 C 31.6914 9.6133 38.0898 16.0117 38.0898 23.7461 C 38.0898 31.4805 31.6914 37.8789 23.9570 37.8789 Z"/>
  </symbol>
  <symbol id="f7-view-grid" viewBox="0 0 56 56">
    <path d="M 10.9023 26.0664 L 21.5898 26.0664 C 24.5663 26.0664 26.0663 24.5664 26.0663 21.4727 L 26.0663 10.9961 C 26.0663 7.9023 24.5663 6.4258 21.5898 6.4258 L 10.9023 6.4258 C 7.9257 6.4258 6.4257 7.9023 6.4257 10.9961 L 6.4257 21.4727 C 6.4257 24.5664 7.9257 26.0664 10.9023 26.0664 Z M 34.4335 26.0664 L 45.0976 26.0664 C 48.0976 26.0664 49.5743 24.5664 49.5743 21.4727 L 49.5743 10.9961 C 49.5743 7.9023 48.0976 6.4258 45.0976 6.4258 L 34.4335 6.4258 C 31.4570 6.4258 29.9570 7.9023 29.9570 10.9961 L 29.9570 21.4727 C 29.9570 24.5664 31.4570 26.0664 34.4335 26.0664 Z M 10.9492 22.7617 C 10.1288 22.7617 9.7304 22.3398 9.7304 21.4727 L 9.7304 10.9961 C 9.7304 10.1523 10.1288 9.7305 10.9492 9.7305 L 21.5195 9.7305 C 22.3398 9.7305 22.7617 10.1523 22.7617 10.9961 L 22.7617 21.4727 C 22.7617 22.3398 22.3398 22.7617 21.5195 22.7617 Z M 34.4804 22.7617 C 33.6601 22.7617 33.2617 22.3398 33.2617 21.4727 L 33.2617 10.9961 C 33.2617 10.1523 33.6601 9.7305 34.4804 9.7305 L 45.0742 9.7305 C 45.8710 9.7305 46.2695 10.1523 46.2695 10.9961 L 46.2695 21.4727 C 46.2695 22.3398 45.8710 22.7617 45.0742 22.7617 Z M 10.9023 49.5742 L 21.5898 49.5742 C 24.5663 49.5742 26.0663 48.0977 26.0663 45.0039 L 26.0663 34.5039 C 26.0663 31.4336 24.5663 29.9336 21.5898 29.9336 L 10.9023 29.9336 C 7.9257 29.9336 6.4257 31.4336 6.4257 34.5039 L 6.4257 45.0039 C 6.4257 48.0977 7.9257 49.5742 10.9023 49.5742 Z M 34.4335 49.5742 L 45.0976 49.5742 C 48.0976 49.5742 49.5743 48.0977 49.5743 45.0039 L 49.5743 34.5039 C 49.5743 31.4336 48.0976 29.9336 45.0976 29.9336 L 34.4335 29.9336 C 31.4570 29.9336 29.9570 31.4336 29.9570 34.5039 L 29.9570 45.0039 C 29.9570 48.0977 31.4570 49.5742 34.4335 49.5742 Z M 10.9492 46.2695 C 10.1288 46.2695 9.7304 45.8477 9.7304 45.0039 L 9.7304 34.5274 C 9.7304 33.6602 10.1288 33.2383 10.9492 33.2383 L 21.5195 33.2383 C 22.3398 33.2383 22.7617 33.6602 22.7617 34.5274 L 22.7617 45.0039 C 22.7617 45.8477 22.3398 46.2695 21.5195 46.2695 Z M 34.4804 46.2695 C 33.6601 46.2695 33.2617 45.8477 33.2617 45.0039 L 33.2617 34.5274 C 33.2617 33.6602 33.6601 33.2383 34.4804 33.2383 L 45.0742 33.2383 C 45.8710 33.2383 46.2695 33.6602 46.2695 34.5274 L 46.2695 45.0039 C 46.2695 45.8477 45.8710 46.2695 45.0742 46.2695 Z"/>
  </symbol>
  <symbol id="f7-view-list" viewBox="0 0 56 56">
    <path d="M 7.3398 16.7617 C 8.9804 16.7617 10.2929 15.4492 10.2929 13.8320 C 10.2929 12.1914 8.9804 10.8789 7.3398 10.8789 C 5.7226 10.8789 4.3867 12.1914 4.3867 13.8320 C 4.3867 15.4492 5.7226 16.7617 7.3398 16.7617 Z M 17.6992 15.7070 L 49.7149 15.7070 C 50.7930 15.7070 51.6133 14.8867 51.6133 13.8320 C 51.6133 12.7539 50.7930 11.9336 49.7149 11.9336 L 17.6992 11.9336 C 16.6445 11.9336 15.8242 12.7539 15.8242 13.8320 C 15.8242 14.8867 16.6445 15.7070 17.6992 15.7070 Z M 7.3398 30.9414 C 8.9804 30.9414 10.2929 29.6289 10.2929 27.9883 C 10.2929 26.3477 8.9804 25.0352 7.3398 25.0352 C 5.7226 25.0352 4.3867 26.3477 4.3867 27.9883 C 4.3867 29.6289 5.7226 30.9414 7.3398 30.9414 Z M 17.6992 29.8867 L 49.7149 29.8867 C 50.7930 29.8867 51.6133 29.0430 51.6133 27.9883 C 51.6133 26.9336 50.7930 26.1133 49.7149 26.1133 L 17.6992 26.1133 C 16.6445 26.1133 15.8242 26.9336 15.8242 27.9883 C 15.8242 29.0430 16.6445 29.8867 17.6992 29.8867 Z M 7.3398 45.1211 C 8.9804 45.1211 10.2929 43.7852 10.2929 42.1680 C 10.2929 40.5273 8.9804 39.2148 7.3398 39.2148 C 5.7226 39.2148 4.3867 40.5273 4.3867 42.1680 C 4.3867 43.7852 5.7226 45.1211 7.3398 45.1211 Z M 17.6992 44.0430 L 49.7149 44.0430 C 50.7930 44.0430 51.6133 43.2227 51.6133 42.1680 C 51.6133 41.0898 50.7930 40.2695 49.7149 40.2695 L 17.6992 40.2695 C 16.6445 40.2695 15.8242 41.0898 15.8242 42.1680 C 15.8242 43.2227 16.6445 44.0430 17.6992 44.0430 Z"/>
  </symbol>
  <symbol id="f7-view-columns" viewBox="0 0 56 56">
    <path d="M 7.7148 49.5742 L 48.2852 49.5742 C 53.1836 49.5742 55.6446 47.1367 55.6446 42.3086 L 55.6446 13.6914 C 55.6446 8.8633 53.1836 6.4258 48.2852 6.4258 L 7.7148 6.4258 C 2.8398 6.4258 .3554 8.8398 .3554 13.6914 L .3554 42.3086 C .3554 47.1602 2.8398 49.5742 7.7148 49.5742 Z M 7.7851 45.8008 C 5.4413 45.8008 4.1288 44.5586 4.1288 42.1211 L 4.1288 13.8789 C 4.1288 11.4414 5.4413 10.1992 7.7851 10.1992 L 17.6523 10.1992 L 17.6523 45.8008 Z M 21.1913 45.8008 L 21.1913 10.1992 L 34.8085 10.1992 L 34.8085 45.8008 Z M 48.2147 10.1992 C 50.5350 10.1992 51.8708 11.4414 51.8708 13.8789 L 51.8708 42.1211 C 51.8708 44.5586 50.5350 45.8008 48.2147 45.8008 L 38.3476 45.8008 L 38.3476 10.1992 Z"/>
  </symbol>
  <symbol id="f7-view-gallery" viewBox="0 0 56 56">
    <path d="M 12.6952 4.6562 L 43.3280 4.6562 C 43.1874 2.6875 42.0624 1.6328 39.9062 1.6328 L 16.1171 1.6328 C 13.9609 1.6328 12.8358 2.6875 12.6952 4.6562 Z M 8.1015 11.1484 L 47.9454 11.1484 C 47.5936 9.0156 46.5625 7.8438 44.2187 7.8438 L 11.8046 7.8438 C 9.4609 7.8438 8.4531 9.0156 8.1015 11.1484 Z M 10.2343 54.3672 L 45.7888 54.3672 C 50.6641 54.3672 53.1251 51.9297 53.1251 47.1016 L 53.1251 22.2109 C 53.1251 17.3828 50.6641 14.9453 45.7888 14.9453 L 10.2343 14.9453 C 5.3358 14.9453 2.8749 17.3594 2.8749 22.2109 L 2.8749 47.1016 C 2.8749 51.9297 5.3358 54.3672 10.2343 54.3672 Z M 10.3046 50.5938 C 7.9609 50.5938 6.6484 49.3281 6.6484 46.8906 L 6.6484 22.3984 C 6.6484 19.9609 7.9609 18.7187 10.3046 18.7187 L 45.7187 18.7187 C 48.0390 18.7187 49.3513 19.9609 49.3513 22.3984 L 49.3513 46.8906 C 49.3513 49.3281 48.0390 50.5938 45.7187 50.5938 Z"/>
  </symbol>
  <symbol id="f7-sidebar" viewBox="0 0 56 56">
    <path d="M 7.7148 49.5742 L 48.2852 49.5742 C 53.1836 49.5742 55.6446 47.1367 55.6446 42.3086 L 55.6446 13.6914 C 55.6446 8.8633 53.1836 6.4258 48.2852 6.4258 L 7.7148 6.4258 C 2.8398 6.4258 .3554 8.8398 .3554 13.6914 L .3554 42.3086 C .3554 47.1602 2.8398 49.5742 7.7148 49.5742 Z M 7.7851 45.8008 C 5.4413 45.8008 4.1288 44.5586 4.1288 42.1211 L 4.1288 13.8789 C 4.1288 11.4414 5.4413 10.1992 7.7851 10.1992 L 18.2148 10.1992 L 18.2148 45.8008 Z M 48.2147 10.1992 C 50.5350 10.1992 51.8708 11.4414 51.8708 13.8789 L 51.8708 42.1211 C 51.8708 44.5586 50.5350 45.8008 48.2147 45.8008 L 21.8944 45.8008 L 21.8944 10.1992 Z M 13.7148 18.8945 C 14.4179 18.8945 15.0507 18.2617 15.0507 17.5820 C 15.0507 16.8789 14.4179 16.2696 13.7148 16.2696 L 8.6757 16.2696 C 7.9726 16.2696 7.3632 16.8789 7.3632 17.5820 C 7.3632 18.2617 7.9726 18.8945 8.6757 18.8945 Z M 13.7148 24.9649 C 14.4179 24.9649 15.0507 24.3320 15.0507 23.6289 C 15.0507 22.9258 14.4179 22.3398 13.7148 22.3398 L 8.6757 22.3398 C 7.9726 22.3398 7.3632 22.9258 7.3632 23.6289 C 7.3632 24.3320 7.9726 24.9649 8.6757 24.9649 Z M 13.7148 31.0118 C 14.4179 31.0118 15.0507 30.4258 15.0507 29.7227 C 15.0507 29.0196 14.4179 28.4102 13.7148 28.4102 L 8.6757 28.4102 C 7.9726 28.4102 7.3632 29.0196 7.3632 29.7227 C 7.3632 30.4258 7.9726 31.0118 8.6757 31.0118 Z"/>
  </symbol>
  <symbol id="f7-share" viewBox="0 0 56 56">
    <path d="M 28.0117 36.0975 C 29.0195 36.0975 29.8633 35.2538 29.8633 34.2694 L 29.8633 10.1991 L 29.7226 6.7069 L 31.3164 8.3710 L 34.8555 12.1444 C 35.1836 12.5194 35.6758 12.7069 36.1211 12.7069 C 37.1055 12.7069 37.8320 12.0038 37.8320 11.0663 C 37.8320 10.5507 37.6445 10.1757 37.2930 9.8241 L 29.3711 2.1835 C 28.9023 1.7146 28.4805 1.5509 28.0117 1.5509 C 27.5195 1.5509 27.1211 1.7146 26.6523 2.1835 L 18.7305 9.8241 C 18.3789 10.1757 18.1679 10.5507 18.1679 11.0663 C 18.1679 12.0038 18.8711 12.7069 19.8555 12.7069 C 20.3242 12.7069 20.8164 12.5194 21.1445 12.1444 L 24.7070 8.3710 L 26.3008 6.6835 L 26.1367 10.1991 L 26.1367 34.2694 C 26.1367 35.2538 27.0039 36.0975 28.0117 36.0975 Z M 14.5586 54.4491 L 41.4414 54.4491 C 46.3633 54.4491 48.8008 52.0116 48.8008 47.1835 L 48.8008 24.0741 C 48.8008 19.2460 46.3633 16.8085 41.4414 16.8085 L 34.9258 16.8085 L 34.9258 20.5819 L 41.3945 20.5819 C 43.6914 20.5819 45.0274 21.8241 45.0274 24.2616 L 45.0274 46.9960 C 45.0274 49.4335 43.6914 50.6757 41.3945 50.6757 L 14.6289 50.6757 C 12.2852 50.6757 10.9726 49.4335 10.9726 46.9960 L 10.9726 24.2616 C 10.9726 21.8241 12.2852 20.5819 14.6289 20.5819 L 21.0976 20.5819 L 21.0976 16.8085 L 14.5586 16.8085 C 9.6836 16.8085 7.1992 19.2226 7.1992 24.0741 L 7.1992 47.1835 C 7.1992 52.0350 9.6836 54.4491 14.5586 54.4491 Z"/>
  </symbol>
  <symbol id="f7-tag" viewBox="0 0 56 56">
    <path d="M 26.1133 51.2148 C 29.4649 54.5664 32.9102 54.6133 36.3555 51.1914 L 51.1913 36.3789 C 54.6132 32.9570 54.5662 29.4883 51.2148 26.1367 L 28.2930 3.2617 C 26.5352 1.5039 25.5508 1.3867 23.0664 1.3867 L 14.1602 1.3867 C 11.6758 1.3867 10.9024 1.9961 9.1446 3.7539 L 3.7539 9.1445 C 1.9727 10.9258 1.3868 11.6992 1.3868 14.1836 L 1.3868 23.0899 C 1.3868 25.5508 1.4805 26.5586 3.2617 28.3164 Z M 28.6446 48.3789 L 5.9102 25.6445 C 5.4414 25.1758 5.1602 24.6836 5.1602 23.9101 L 5.1602 14.0195 C 5.1602 13.2930 5.4180 12.8008 5.9102 12.3086 L 12.2852 5.9336 C 12.8008 5.4414 13.2695 5.1601 14.0195 5.1601 L 23.8868 5.1601 C 24.6836 5.1601 25.1524 5.4648 25.6446 5.9336 L 48.379 28.6445 C 50.0432 30.3086 50.0897 32.1133 48.3555 33.8242 L 33.8242 48.3555 C 32.1133 50.0899 30.3086 50.0664 28.6446 48.3789 Z M 16.9024 20.1367 C 18.7305 20.1367 20.1133 18.7070 20.1133 16.9258 C 20.1133 15.1211 18.7305 13.7148 16.9024 13.7148 C 15.0742 13.7148 13.6914 15.1211 13.6914 16.9258 C 13.6914 18.7070 15.0742 20.1367 16.9024 20.1367 Z"/>
  </symbol>
  <symbol id="f7-more" viewBox="0 0 56 56">
    <path d="M 27.9999 51.9063 C 41.0546 51.9063 51.9063 41.0781 51.9063 28 C 51.9063 14.9453 41.0312 4.0937 27.9765 4.0937 C 14.8983 4.0937 4.0937 14.9453 4.0937 28 C 4.0937 41.0781 14.9218 51.9063 27.9999 51.9063 Z M 27.9999 47.9219 C 16.9374 47.9219 8.1014 39.0625 8.1014 28 C 8.1014 16.9609 16.9140 8.0781 27.9765 8.0781 C 39.0155 8.0781 47.8983 16.9609 47.9219 28 C 47.9454 39.0625 39.0390 47.9219 27.9999 47.9219 Z M 20.2655 28.0234 C 20.2655 26.3125 18.8124 24.8594 17.1014 24.8594 C 15.3671 24.8594 13.9374 26.3125 13.9374 28.0234 C 13.9374 29.7344 15.3905 31.1875 17.1014 31.1875 C 18.8124 31.1875 20.2655 29.7344 20.2655 28.0234 Z M 31.1405 28.0234 C 31.1405 26.3125 29.6640 24.8594 27.9765 24.8594 C 26.2421 24.8594 24.8124 26.3125 24.8124 28.0234 C 24.8124 29.7344 26.2890 31.1875 27.9765 31.1875 C 29.6640 31.1875 31.1405 29.7344 31.1405 28.0234 Z M 42.0155 28.0234 C 42.0155 26.3125 40.5624 24.8594 38.8514 24.8594 C 37.1171 24.8594 35.6640 26.3125 35.6640 28.0234 C 35.6640 29.7344 37.1405 31.1875 38.8514 31.1875 C 40.5624 31.1875 42.0155 29.7344 42.0155 28.0234 Z"/>
  </symbol>
  <symbol id="f7-back" viewBox="0 0 56 56">
    <path d="M 35.8047 47.7226 C 36.2031 48.1211 36.7187 48.3555 37.3281 48.3555 C 38.5469 48.3555 39.4609 47.4414 39.4609 46.2226 C 39.4609 45.6367 39.2266 45.0976 38.8515 44.6992 L 21.7891 28.0117 L 38.8515 11.3242 C 39.2266 10.9258 39.4609 10.3633 39.4609 9.8007 C 39.4609 8.5820 38.5469 7.6445 37.3281 7.6445 C 36.7187 7.6445 36.2031 7.8789 35.8047 8.2773 L 17.2422 26.4414 C 16.7969 26.8164 16.5391 27.4023 16.5391 28.0117 C 16.5391 28.5976 16.7969 29.1367 17.2422 29.5820 Z"/>
  </symbol>
  <symbol id="f7-forward" viewBox="0 0 56 56">
    <path d="M 18.6953 48.3672 C 19.2813 48.3672 19.7969 48.1328 20.2187 47.7344 L 38.7813 29.5703 C 39.2266 29.1250 39.4609 28.5859 39.4609 28.0000 C 39.4609 27.3906 39.2266 26.8281 38.7813 26.4297 L 20.2187 8.2890 C 19.8203 7.8672 19.2813 7.6328 18.6953 7.6328 C 17.4766 7.6328 16.5391 8.5703 16.5391 9.7890 C 16.5391 10.3515 16.7969 10.9141 17.1718 11.3125 L 34.2109 28.0000 L 17.1718 44.6875 C 16.7969 45.0859 16.5391 45.6250 16.5391 46.2109 C 16.5391 47.4297 17.4766 48.3672 18.6953 48.3672 Z"/>
  </symbol>
  <symbol id="f7-chevron-down" viewBox="0 0 56 56">
    <path d="M 28.0000 39.4609 C 28.5859 39.4609 29.1718 39.2266 29.5703 38.7813 L 47.7344 20.1953 C 48.1328 19.7969 48.3672 19.2813 48.3672 18.6953 C 48.3672 17.4766 47.4297 16.5391 46.2109 16.5391 C 45.6484 16.5391 45.0859 16.7735 44.6875 17.1484 L 28.0000 34.2109 L 11.3125 17.1484 C 10.9140 16.7735 10.3750 16.5391 9.7891 16.5391 C 8.5703 16.5391 7.6328 17.4766 7.6328 18.6953 C 7.6328 19.2813 7.8672 19.7969 8.2656 20.2187 L 26.4297 38.7813 C 26.875 39.2266 27.3906 39.4609 28.0000 39.4609 Z"/>
  </symbol>
  <symbol id="f7-wifi" viewBox="0 0 56 56">
    <path d="M 5.4648 25.0352 C 5.9102 25.4805 6.5664 25.4571 6.9882 25.0118 C 12.5195 19.1289 19.8320 16.0352 28.0117 16.0352 C 36.2382 16.0352 43.5742 19.1523 49.0819 25.0352 C 49.4803 25.4336 50.1135 25.4336 50.5354 24.9883 L 53.6525 21.8711 C 54.0274 21.4727 54.0274 20.9571 53.7226 20.5820 C 48.4258 14.0664 38.4648 9.2617 28.0117 9.2617 C 17.5586 9.2617 7.5976 14.0664 2.3007 20.5820 C 1.9726 20.9571 1.9961 21.4727 2.3711 21.8711 Z M 14.8398 34.4336 C 15.3086 34.9258 15.9180 34.8789 16.3633 34.3633 C 19.0820 31.3398 23.4882 29.1602 28.0117 29.2071 C 32.5820 29.1602 36.9648 31.4102 39.7070 34.4336 C 40.1523 34.9023 40.7382 34.9023 41.1836 34.4102 L 44.6758 30.9649 C 45.0507 30.5898 45.0976 30.0977 44.7461 29.6992 C 41.3476 25.5039 35.0429 22.4102 28.0117 22.4102 C 20.9804 22.4102 14.6758 25.5274 11.2773 29.6992 C 10.9258 30.0977 10.9726 30.5664 11.3476 30.9649 Z M 28.0117 46.7383 C 28.5039 46.7383 28.9492 46.4805 29.8164 45.6367 L 35.3007 40.3633 C 35.6523 40.0352 35.7226 39.5196 35.4180 39.1211 C 33.9414 37.2227 31.1758 35.5820 28.0117 35.5820 C 24.7773 35.5820 21.9648 37.2930 20.5117 39.2617 C 20.3007 39.5898 20.3711 40.0352 20.7226 40.3633 L 26.2070 45.6367 C 27.0742 46.4805 27.5195 46.7383 28.0117 46.7383 Z"/>
  </symbol>
  <symbol id="f7-battery" viewBox="0 0 56 56">
    <path d="M 9.4633 42.0000 L 40.8481 42.0000 C 43.8786 42.0000 46.4304 41.7165 48.2379 39.9089 C 50.0457 38.1013 50.2935 35.5848 50.2935 32.5545 L 50.2935 23.4633 C 50.2935 20.4329 50.0457 17.8987 48.2379 16.1089 C 46.4127 14.3013 43.8786 14.0000 40.8481 14.0000 L 9.4101 14.0000 C 6.4329 14.0000 3.8810 14.3013 2.0734 16.1089 C .2658 17.9164 0 20.4329 0 23.4101 L 0 32.5545 C 0 35.5848 .2658 38.1190 2.0734 39.9089 C 3.8810 41.7165 6.4329 42.0000 9.4633 42.0000 Z M 8.9671 39.1468 C 7.1418 39.1468 5.2279 38.8987 4.1646 37.8355 C 3.0835 36.7544 2.8532 34.8759 2.8532 33.0506 L 2.8532 23.0202 C 2.8532 21.1595 3.0835 19.2456 4.1468 18.1823 C 5.2279 17.1013 7.1595 16.8532 9.0203 16.8532 L 41.3442 16.8532 C 43.1520 16.8532 45.0836 17.1190 46.1470 18.1823 C 47.2278 19.2633 47.4405 21.1418 47.4405 22.9671 L 47.4405 33.0506 C 47.4405 34.8759 47.2100 36.7544 46.1470 37.8355 C 45.0836 38.9165 43.1520 39.1468 41.3442 39.1468 Z M 8.6126 36.7367 L 41.6988 36.7367 C 43.0101 36.7367 43.7367 36.5595 44.3036 36.0101 C 44.8709 35.4430 45.0302 34.6988 45.0302 33.4051 L 45.0302 22.6127 C 45.0302 21.3013 44.8531 20.5747 44.3036 20.0076 C 43.7367 19.4405 43.0101 19.2810 41.6988 19.2810 L 8.6126 19.2810 C 7.3013 19.2810 6.5747 19.4405 6.0076 20.0076 C 5.4405 20.5747 5.2810 21.3013 5.2810 22.6127 L 5.2810 33.4051 C 5.2810 34.6988 5.4405 35.4430 6.0076 36.0101 C 6.5747 36.5595 7.3013 36.7367 8.6126 36.7367 Z M 52.7216 32.4835 C 54.1214 32.3949 56 30.6051 56 27.8937 C 56 25.2000 54.1214 23.4101 52.7216 23.3215 Z"/>
  </symbol>
  <symbol id="f7-trash" viewBox="0 0 56 56">
    <path d="M 44.5235 48.6602 L 46.1407 14.3945 L 48.4844 14.3945 C 49.4454 14.3945 50.2187 13.5976 50.2187 12.6367 C 50.2187 11.6758 49.4454 10.8555 48.4844 10.8555 L 38.2422 10.8555 L 38.2422 7.3398 C 38.2422 3.9883 35.9688 1.8086 32.3595 1.8086 L 23.5938 1.8086 C 19.9844 1.8086 17.7344 3.9883 17.7344 7.3398 L 17.7344 10.8555 L 7.5391 10.8555 C 6.6016 10.8555 5.7813 11.6758 5.7813 12.6367 C 5.7813 13.5976 6.6016 14.3945 7.5391 14.3945 L 9.8829 14.3945 L 11.5000 48.6836 C 11.6641 52.0586 13.8907 54.1914 17.2657 54.1914 L 38.7579 54.1914 C 42.1095 54.1914 44.3595 52.0351 44.5235 48.6602 Z M 21.4844 7.5742 C 21.4844 6.2383 22.4688 5.3008 23.8751 5.3008 L 32.1016 5.3008 C 33.5313 5.3008 34.5157 6.2383 34.5157 7.5742 L 34.5157 10.8555 L 21.4844 10.8555 Z M 17.6173 50.6758 C 16.2579 50.6758 15.2500 49.6445 15.1797 48.2852 L 13.5391 14.3945 L 42.3907 14.3945 L 40.8438 48.2852 C 40.7735 49.6680 39.7891 50.6758 38.4063 50.6758 Z M 34.9610 46.5508 C 35.7344 46.5508 36.3204 45.9180 36.3438 45.0273 L 37.0469 20.2773 C 37.0704 19.3867 36.4610 18.7305 35.6641 18.7305 C 34.9376 18.7305 34.3282 19.4102 34.3048 20.2539 L 33.6016 45.0273 C 33.5782 45.8711 34.1641 46.5508 34.9610 46.5508 Z M 21.0626 46.5508 C 21.8595 46.5508 22.4454 45.8711 22.4219 45.0273 L 21.7188 20.2539 C 21.6954 19.4102 21.0626 18.7305 20.3360 18.7305 C 19.5391 18.7305 18.9532 19.3867 18.9766 20.2773 L 19.7032 45.0273 C 19.7266 45.9180 20.2891 46.5508 21.0626 46.5508 Z M 29.4298 45.0273 L 29.4298 20.2539 C 29.4298 19.4102 28.7969 18.7305 28.0235 18.7305 C 27.2500 18.7305 26.5938 19.4102 26.5938 20.2539 L 26.5938 45.0273 C 26.5938 45.8711 27.2500 46.5508 28.0235 46.5508 C 28.7735 46.5508 29.4298 45.8711 29.4298 45.0273 Z"/>
  </symbol>
  <symbol id="f7-home" viewBox="0 0 56 56">
    <path d="M 12.6251 52.6445 L 43.3986 52.6445 C 46.7267 52.6445 48.6722 50.7695 48.6722 47.4648 L 48.6722 26.0664 L 51.6952 28.8320 C 52.1877 29.3008 52.7267 29.6289 53.3829 29.6289 C 54.4845 29.6289 55.3749 28.9492 55.3749 27.8242 C 55.3749 27.1211 55.1171 26.6758 54.6722 26.2774 L 46.5391 18.8476 L 46.5391 5.0430 C 46.5391 4.0117 45.8829 3.3555 44.8519 3.3555 L 41.7813 3.3555 C 40.7735 3.3555 40.0704 4.0117 40.0704 5.0430 L 40.0704 12.9648 L 30.8126 4.5274 C 29.9923 3.7774 29.0079 3.3555 28.0001 3.3555 C 26.9923 3.3555 26.0079 3.7774 25.1876 4.5274 L 1.3282 26.2774 C .9064 26.6758 .6251 27.1211 .6251 27.8242 C .6251 28.9492 1.5157 29.6289 2.6173 29.6289 C 3.2970 29.6289 3.8360 29.3008 4.3048 28.8320 L 7.3282 26.0898 L 7.3282 47.4648 C 7.3282 50.7695 9.2735 52.6445 12.6251 52.6445 Z M 34.7501 33.3086 C 34.7501 32.2305 34.0470 31.5508 32.9689 31.5508 L 23.0313 31.5508 C 21.9532 31.5508 21.2267 32.2305 21.2267 33.3086 L 21.2267 48.8711 L 13.4220 48.8711 C 11.9220 48.8711 11.1017 48.0508 11.1017 46.5273 L 11.1017 22.6445 L 27.1798 7.9961 C 27.4142 7.7617 27.6954 7.6211 28.0001 7.6211 C 28.3048 7.6211 28.5860 7.7383 28.8439 7.9961 L 44.8984 22.6445 L 44.8984 46.5273 C 44.8984 48.0508 44.0781 48.8711 42.6017 48.8711 L 34.7501 48.8711 Z"/>
  </symbol>
  <symbol id="f7-desktop-computer" viewBox="0 0 56 56">
    <path d="M 6.0860 43.2930 L 20.7579 43.2930 L 20.1251 47.6055 L 16.9142 47.6055 C 15.8360 47.6055 14.9220 48.4961 14.9220 49.5977 C 14.9220 50.6992 15.8360 51.6133 16.9142 51.6133 L 39.0860 51.6133 C 40.1642 51.6133 41.0782 50.6992 41.0782 49.5977 C 41.0782 48.4961 40.1642 47.6055 39.0860 47.6055 L 35.8751 47.6055 L 35.2423 43.2930 L 49.9144 43.2930 C 53.9219 43.2930 55.9374 41.3711 55.9374 37.2695 L 55.9374 10.4102 C 55.9374 6.3086 53.9219 4.3867 49.9144 4.3867 L 6.0860 4.3867 C 2.0782 4.3867 .6 6.3086 .6 10.4102 L .6 37.2695 C .6 41.3711 2.0782 43.2930 6.0860 43.2930 Z M 4.8438 32.9805 C 4.1407 32.9805 3.8360 32.6992 3.8360 31.9726 L 3.8360 10.4805 C 3.8360 8.8164 4.5626 8.1602 6.1564 8.1602 L 49.8438 8.1602 C 51.4609 8.1602 52.1641 8.8164 52.1641 10.4805 L 52.1641 31.9726 C 52.1641 32.6992 51.8593 32.9805 51.1561 32.9805 Z M 28.0001 40.9727 C 26.8282 40.9727 25.8204 39.9883 25.8204 38.7930 C 25.8204 37.6446 26.8282 36.6367 28.0001 36.6367 C 29.1720 36.6367 30.1798 37.6446 30.1798 38.7930 C 30.1798 39.9883 29.1720 40.9727 28.0001 40.9727 Z"/>
  </symbol>
  <symbol id="f7-photo" viewBox="0 0 56 56">
    <path d="M 7.7148 49.5742 L 48.2852 49.5742 C 53.1836 49.5742 55.6446 47.1367 55.6446 42.3086 L 55.6446 13.6914 C 55.6446 8.8633 53.1836 6.4258 48.2852 6.4258 L 7.7148 6.4258 C 2.8398 6.4258 .3554 8.8398 .3554 13.6914 L .3554 42.3086 C .3554 47.1602 2.8398 49.5742 7.7148 49.5742 Z M 39.2851 27.9414 C 38.2304 27.0039 37.0351 26.5118 35.7695 26.5118 C 34.4570 26.5118 33.3085 26.9571 32.2304 27.9180 L 21.6366 37.3867 L 17.3007 33.4492 C 16.3163 32.5820 15.2617 32.1133 14.1366 32.1133 C 13.1054 32.1133 12.0976 32.5586 11.1366 33.4258 L 4.1288 39.7305 L 4.1288 13.8789 C 4.1288 11.4414 5.4413 10.1992 7.7851 10.1992 L 48.2147 10.1992 C 50.5350 10.1992 51.8708 11.4414 51.8708 13.8789 L 51.8708 39.7539 Z M 17.8163 28.1992 C 20.8398 28.1992 23.3241 25.7149 23.3241 22.6680 C 23.3241 19.6445 20.8398 17.1367 17.8163 17.1367 C 14.7695 17.1367 12.2851 19.6445 12.2851 22.6680 C 12.2851 25.7149 14.7695 28.1992 17.8163 28.1992 Z"/>
  </symbol>
  <symbol id="f7-film" viewBox="0 0 56 56">
    <path d="M 3.5429 49.6094 L 52.4804 49.6094 C 54.5896 49.6094 55.6446 48.5312 55.6446 46.4219 L 55.6446 9.5781 C 55.6446 7.4922 54.5896 6.3906 52.4804 6.3906 L 3.5429 6.3906 C 1.4335 6.3906 .3554 7.4922 .3554 9.5781 L .3554 46.4219 C .3554 48.5312 1.4335 49.6094 3.5429 49.6094 Z M 5.2304 14.1484 C 4.5273 14.1484 4.0351 13.6328 4.0351 13.0000 L 4.0351 10.3750 C 4.0351 9.6484 4.4804 9.1562 5.2304 9.1562 L 8.0663 9.1562 C 8.7695 9.1562 9.2382 9.6484 9.2382 10.3750 L 9.2382 13.0000 C 9.2382 13.6328 8.7695 14.1484 8.0663 14.1484 Z M 47.7227 14.1484 C 47.0195 14.1484 46.5275 13.6328 46.5275 13.0000 L 46.5275 10.3750 C 46.5275 9.6484 46.9960 9.1562 47.7227 9.1562 L 50.5585 9.1562 C 51.2617 9.1562 51.7537 9.6484 51.7537 10.3750 L 51.7537 13.0000 C 51.7537 13.6328 51.2617 14.1484 50.5585 14.1484 Z M 14.4179 26.2188 C 13.5976 26.2188 13.1523 25.7734 13.1523 24.9531 L 13.1523 11.1484 C 13.1523 10.3281 13.5976 9.8594 14.4179 9.8594 L 41.3476 9.8594 C 42.1679 9.8594 42.6366 10.3281 42.6366 11.1484 L 42.6366 24.9531 C 42.6366 25.7734 42.1679 26.2188 41.3476 26.2188 Z M 5.2304 22.3281 C 4.5273 22.3281 4.0351 21.8125 4.0351 21.1797 L 4.0351 18.5547 C 4.0351 17.8281 4.4804 17.3359 5.2304 17.3359 L 8.0663 17.3359 C 8.7695 17.3359 9.2382 17.8281 9.2382 18.5547 L 9.2382 21.1797 C 9.2382 21.8125 8.7695 22.3281 8.0663 22.3281 Z M 47.7227 22.3281 C 47.0195 22.3281 46.5275 21.8125 46.5275 21.1797 L 46.5275 18.5547 C 46.5275 17.8281 46.9960 17.3359 47.7227 17.3359 L 50.5585 17.3359 C 51.2617 17.3359 51.7537 17.8281 51.7537 18.5547 L 51.7537 21.1797 C 51.7537 21.8125 51.2617 22.3281 50.5585 22.3281 Z M 5.2304 30.5078 C 4.5273 30.5078 4.0351 29.9922 4.0351 29.3594 L 4.0351 26.7344 C 4.0351 26.0078 4.4804 25.5156 5.2304 25.5156 L 8.0663 25.5156 C 8.7695 25.5156 9.2382 26.0078 9.2382 26.7344 L 9.2382 29.3594 C 9.2382 29.9922 8.7695 30.5078 8.0663 30.5078 Z M 47.7227 30.5078 C 47.0195 30.5078 46.5275 29.9922 46.5275 29.3594 L 46.5275 26.7344 C 46.5275 26.0078 46.9960 25.5156 47.7227 25.5156 L 50.5585 25.5156 C 51.2617 25.5156 51.7537 26.0078 51.7537 26.7344 L 51.7537 29.3594 C 51.7537 29.9922 51.2617 30.5078 50.5585 30.5078 Z M 14.4179 46.1641 C 13.5976 46.1641 13.1523 45.6953 13.1523 44.8984 L 13.1523 31.1641 C 13.1523 30.3672 13.5976 29.8984 14.4179 29.8984 L 41.3476 29.8984 C 42.1679 29.8984 42.6366 30.3672 42.6366 31.1641 L 42.6366 44.8984 C 42.6366 45.6953 42.1679 46.1641 41.3476 46.1641 Z M 5.2304 38.6875 C 4.5273 38.6875 4.0351 38.1719 4.0351 37.5391 L 4.0351 34.9141 C 4.0351 34.1875 4.4804 33.6953 5.2304 33.6953 L 8.0663 33.6953 C 8.7695 33.6953 9.2382 34.1875 9.2382 34.9141 L 9.2382 37.5391 C 9.2382 38.1719 8.7695 38.6875 8.0663 38.6875 Z M 47.7227 38.6875 C 47.0195 38.6875 46.5275 38.1719 46.5275 37.5391 L 46.5275 34.9141 C 46.5275 34.1875 46.9960 33.6953 47.7227 33.6953 L 50.5585 33.6953 C 51.2617 33.6953 51.7537 34.1875 51.7537 34.9141 L 51.7537 37.5391 C 51.7537 38.1719 51.2617 38.6875 50.5585 38.6875 Z M 5.2304 46.8672 C 4.5273 46.8672 4.0351 46.3516 4.0351 45.7187 L 4.0351 43.0937 C 4.0351 42.3672 4.4804 41.8750 5.2304 41.8750 L 8.0663 41.8750 C 8.7695 41.8750 9.2382 42.3672 9.2382 43.0937 L 9.2382 45.7187 C 9.2382 46.3516 8.7695 46.8672 8.0663 46.8672 Z M 47.7227 46.8672 C 47.0195 46.8672 46.5275 46.3516 46.5275 45.7187 L 46.5275 43.0937 C 46.5275 42.3672 46.9960 41.8750 47.7227 41.8750 L 50.5585 41.8750 C 51.2617 41.8750 51.7537 42.3672 51.7537 43.0937 L 51.7537 45.7187 C 51.7537 46.3516 51.2617 46.8672 50.5585 46.8672 Z"/>
  </symbol>
  <symbol id="f7-music" viewBox="0 0 56 56">
    <path d="M 42.6484 15.1797 L 42.6484 6.3437 C 42.6484 5.0312 41.5703 4.1641 40.3047 4.4453 L 27.8594 7.1406 C 26.2656 7.4922 25.3984 8.3359 25.3984 9.7422 L 25.5391 35.8047 C 25.5391 36.8828 25.0469 37.5859 24.0860 37.7734 L 20.3594 38.5703 C 15.5781 39.5547 13.3516 42.0156 13.3516 45.6015 C 13.3516 49.2578 16.1875 51.8359 20.1484 51.8359 C 23.6172 51.8359 28.8672 49.2344 28.8672 42.3437 L 28.8672 20.8984 C 28.8672 19.7265 29.0547 19.5156 30.1094 19.3047 L 41.2656 16.8437 C 42.1094 16.6563 42.6484 16 42.6484 15.1797 Z"/>
  </symbol>
  <symbol id="f7-speaker" viewBox="0 0 56 56">
    <path d="M 26.0001 49.4510 C 27.5814 49.4510 28.7210 48.2882 28.7210 46.7300 L 28.7210 9.6369 C 28.7210 8.0787 27.5814 6.7765 25.9536 6.7765 C 24.8140 6.7765 24.0466 7.2881 22.8140 8.4509 L 12.5582 18.1486 C 12.3954 18.2881 12.1861 18.3579 11.9535 18.3579 L 5.0465 18.3579 C 1.7674 18.3579 0 20.1486 0 23.6370 L 0 32.6602 C 0 36.1486 1.7674 37.9393 5.0465 37.9393 L 11.9535 37.9393 C 12.1861 37.9393 12.3954 38.0091 12.5582 38.1486 L 22.8140 47.9393 C 23.9303 48.9859 24.8605 49.4510 26.0001 49.4510 Z M 48.4886 44.7068 C 49.3954 45.3114 50.5118 45.0789 51.1629 44.1486 C 54.2325 39.8696 56.0000 34.1719 56.0000 28.2184 C 56.0000 22.2416 54.2559 16.5439 51.1629 12.2648 C 50.4885 11.3578 49.3954 11.1253 48.4886 11.7300 C 47.6046 12.3346 47.4651 13.4741 48.1628 14.4741 C 50.6976 18.1951 52.2560 23.0788 52.2560 28.2184 C 52.2560 33.3579 50.7442 38.2882 48.1395 41.9626 C 47.4884 42.9626 47.6046 44.1021 48.4886 44.7068 Z M 39.2094 38.4277 C 40.0001 38.9858 41.1396 38.7998 41.8140 37.8928 C 43.6281 35.4510 44.7212 31.8695 44.7212 28.2184 C 44.7212 24.5672 43.6048 21.0090 41.8140 18.5207 C 41.1396 17.6137 40.0234 17.4277 39.2094 17.9858 C 38.1862 18.6602 38.0699 19.8463 38.8140 20.8695 C 40.1629 22.6835 40.9768 25.4509 40.9768 28.2184 C 40.9768 30.9858 40.1164 33.7533 38.7908 35.5905 C 38.0931 36.5905 38.2094 37.7300 39.2094 38.4277 Z"/>
  </symbol>
  <symbol id="f7-control-center" viewBox="0 0 56 56">
    <path d="M 8.2656 35.7812 C 7.8672 36.2031 7.6328 36.7187 7.6328 37.3047 C 7.6328 38.5234 8.5703 39.4609 9.7891 39.4609 C 10.3750 39.4609 10.9140 39.2031 11.3125 38.8281 L 28.0000 21.7891 L 44.6875 38.8281 C 45.0859 39.2031 45.6484 39.4609 46.2109 39.4609 C 47.4297 39.4609 48.3672 38.5234 48.3672 37.3047 C 48.3672 36.7187 48.1328 36.2031 47.7344 35.7812 L 29.5703 17.2187 C 29.1718 16.7734 28.5859 16.5391 28.0000 16.5391 C 27.3906 16.5391 26.875 16.7734 26.4297 17.2187 Z"/>
  </symbol>
  <symbol id="f7-command" viewBox="0 0 56 56">
    <path d="M 18.9298 22.5390 L 18.9298 33.4844 L 14.2188 33.4844 C 9.6251 33.4844 5.8516 37.1172 5.8516 41.7578 C 5.8516 46.3984 9.6251 50.1484 14.2188 50.1484 C 18.8360 50.1484 22.5860 46.3984 22.5860 41.7578 L 22.5860 37.0703 L 33.3907 37.0703 L 33.3907 41.7578 C 33.3907 46.3984 37.1641 50.1484 41.7813 50.1484 C 46.3751 50.1484 50.1484 46.3984 50.1484 41.7578 C 50.1484 37.1172 46.3751 33.4844 41.7813 33.4844 L 37.0469 33.4844 L 37.0469 22.5390 L 41.7813 22.5390 C 46.3751 22.5390 50.1484 18.9063 50.1484 14.2656 C 50.1484 9.6250 46.3751 5.8516 41.7813 5.8516 C 37.1641 5.8516 33.3907 9.6250 33.3907 14.2656 L 33.3907 18.9531 L 22.5860 18.9531 L 22.5860 14.2656 C 22.5860 9.6250 18.8360 5.8516 14.2188 5.8516 C 9.6251 5.8516 5.8516 9.6250 5.8516 14.2656 C 5.8516 18.9063 9.6251 22.5390 14.2188 22.5390 Z M 14.2188 19 C 11.6641 19 9.5079 16.8672 9.5079 14.2656 C 9.5079 11.6641 11.6641 9.5078 14.2188 9.5078 C 16.7969 9.5078 18.9298 11.6641 18.9298 14.2656 L 18.9298 19 Z M 41.7813 19 L 37.0469 19 L 37.0469 14.2656 C 37.0469 11.6641 39.2032 9.5078 41.7813 9.5078 C 44.3360 9.5078 46.4922 11.6641 46.4922 14.2656 C 46.4922 16.8672 44.3360 19 41.7813 19 Z M 22.5860 33.5312 L 22.5860 22.4922 L 33.3907 22.4922 L 33.3907 33.5312 Z M 14.2188 37 L 18.9298 37 L 18.9298 41.7344 C 18.9298 44.3359 16.7969 46.4687 14.2188 46.4687 C 11.6641 46.4687 9.5079 44.3359 9.5079 41.7344 C 9.5079 39.1328 11.6641 37 14.2188 37 Z M 41.7813 37 C 44.3360 37 46.4922 39.1328 46.4922 41.7344 C 46.4922 44.3359 44.3360 46.4687 41.7813 46.4687 C 39.2032 46.4687 37.0469 44.3359 37.0469 41.7344 L 37.0469 37 Z"/>
  </symbol>
  <symbol id="f7-plus" viewBox="0 0 56 56">
    <path d="M 27.9883 47.7344 C 29.1367 47.7344 30.0976 46.8203 30.0976 45.6953 L 30.0976 30.1094 L 45.2383 30.1094 C 46.3633 30.1094 47.3476 29.1484 47.3476 28 C 47.3476 26.8516 46.3633 25.9141 45.2383 25.9141 L 30.0976 25.9141 L 30.0976 10.3047 C 30.0976 9.1797 29.1367 8.2656 27.9883 8.2656 C 26.8398 8.2656 25.9024 9.1797 25.9024 10.3047 L 25.9024 25.9141 L 10.7617 25.9141 C 9.6367 25.9141 8.6524 26.8516 8.6524 28 C 8.6524 29.1484 9.6367 30.1094 10.7617 30.1094 L 25.9024 30.1094 L 25.9024 45.6953 C 25.9024 46.8203 26.8398 47.7344 27.9883 47.7344 Z"/>
  </symbol>
  <symbol id="f7-minus" viewBox="0 0 56 56">
    <path d="M 10.7617 30.0977 L 45.2383 30.0977 C 46.3633 30.0977 47.3476 29.1367 47.3476 27.9883 C 47.3476 26.8398 46.3633 25.9023 45.2383 25.9023 L 10.7617 25.9023 C 9.6367 25.9023 8.6524 26.8398 8.6524 27.9883 C 8.6524 29.1367 9.6367 30.0977 10.7617 30.0977 Z"/>
  </symbol>
  <symbol id="f7-close" viewBox="0 0 56 56">
    <path d="M 10.0234 43.0234 C 9.2266 43.8203 9.2031 45.1797 10.0234 45.9766 C 10.8438 46.7734 12.1797 46.7734 13.0000 45.9766 L 28.0000 30.9766 L 43.0000 45.9766 C 43.7969 46.7734 45.1563 46.7969 45.9766 45.9766 C 46.7734 45.1562 46.7734 43.8203 45.9766 43.0234 L 30.9531 28.0000 L 45.9766 13.0000 C 46.7734 12.2031 46.7969 10.8437 45.9766 10.0469 C 45.1328 9.2266 43.7969 9.2266 43.0000 10.0469 L 28.0000 25.0469 L 13.0000 10.0469 C 12.1797 9.2266 10.8203 9.2031 10.0234 10.0469 C 9.2266 10.8672 9.2266 12.2031 10.0234 13.0000 L 25.0234 28.0000 Z"/>
  </symbol>
  <symbol id="f7-check" viewBox="0 0 56 56">
    <path d="M 23.0781 48.0273 C 24.0859 48.0273 24.8828 47.5820 25.4453 46.7148 L 47.5937 11.8398 C 48.0156 11.1602 48.2031 10.6445 48.2031 10.1054 C 48.2031 8.8164 47.3359 7.9727 46.0469 7.9727 C 45.1328 7.9727 44.5937 8.2773 44.0313 9.1680 L 22.9844 42.7070 L 12.0625 28.4102 C 11.4766 27.5898 10.9140 27.2617 10.0469 27.2617 C 8.7344 27.2617 7.7969 28.1758 7.7969 29.4649 C 7.7969 30.0039 8.0313 30.6133 8.4766 31.1758 L 20.6406 46.6680 C 21.3672 47.5820 22.0703 48.0273 23.0781 48.0273 Z"/>
  </symbol>
  <symbol id="f7-code" viewBox="0 0 56 56">
    <path d="M 21.7661 52.1292 C 22.7207 52.3965 23.6563 51.8619 23.9618 50.8309 L 35.3603 11.7666 C 35.6467 10.7355 35.1694 9.7809 34.2147 9.4945 C 33.2601 9.2272 32.3245 9.7618 32.0190 10.7928 L 20.6396 49.8572 C 20.3532 50.8882 20.8114 51.8428 21.7661 52.1292 Z M 40.7445 45.1985 L 55.1026 32.2343 C 56 31.4324 55.9808 30.1722 55.1026 29.3894 L 40.7445 16.4252 C 39.9617 15.6806 38.8735 15.6997 38.2052 16.4443 C 37.5369 17.1890 37.6515 18.2582 38.4152 18.9646 L 51.5130 30.8023 L 38.4152 42.6591 C 37.6515 43.3655 37.5369 44.4347 38.2052 45.1794 C 38.8735 45.9240 39.9617 45.9240 40.7445 45.1985 Z M 15.2363 45.2176 C 16.0382 45.9431 17.1074 45.9240 17.7756 45.1794 C 18.4439 44.4347 18.3484 43.3846 17.5847 42.6782 L 4.4868 30.8214 L 17.5847 18.9646 C 18.3484 18.2582 18.4439 17.2081 17.7756 16.4443 C 17.1074 15.6997 16.0382 15.6997 15.2363 16.4252 L .8783 29.3894 C 0 30.1913 .1 31.4514 .8783 32.2343 Z"/>
  </symbol>
  <symbol id="f7-photo-preview" viewBox="0 0 56 56">
    <path d="M 6.6505 42.2994 L 10.5900 42.2994 L 10.5900 45.9424 C 10.5900 50.3055 12.7927 52.5082 17.2405 52.5082 L 49.3495 52.5082 C 53.7548 52.5082 56 50.3055 56 45.9424 L 56 23.4281 C 56 19.0861 53.7548 16.8834 49.3495 16.8834 L 45.4100 16.8834 L 45.4100 13.4523 C 45.4100 9.0892 43.1861 6.8865 38.7803 6.8865 L 6.6505 6.8865 C 2.2239 6.8865 0 9.0892 0 13.4523 L 0 35.7548 C 0 40.1179 2.2239 42.2994 6.6505 42.2994 Z M 6.7141 38.8894 C 4.5961 38.8894 3.4100 37.7669 3.4100 35.5642 L 3.4100 13.6429 C 3.4100 11.4402 4.5961 10.2964 6.7141 10.2964 L 38.7170 10.2964 C 40.8138 10.2964 41.9998 11.4402 41.9998 13.6429 L 41.9998 16.8834 L 17.2405 16.8834 C 12.7927 16.8834 10.5900 19.0650 10.5900 23.4281 L 10.5900 38.8894 Z M 14.0000 23.6187 C 14.0000 21.4160 15.1649 20.2934 17.2829 20.2934 L 49.2857 20.2934 C 51.3826 20.2934 52.5897 21.4160 52.5897 23.6187 L 52.5897 41.3040 L 44.8166 33.9757 C 43.9062 33.1073 42.7836 32.6837 41.6397 32.6837 C 40.4538 32.6837 39.4371 33.0861 38.4416 33.9545 L 28.9319 42.3841 L 25.1407 38.9530 C 24.2511 38.1693 23.2768 37.7457 22.2601 37.7457 C 21.3282 37.7457 20.4598 38.1270 19.5491 38.9318 L 14.0000 43.7608 Z M 25.4795 34.5052 C 28.2117 34.5052 30.4568 32.2601 30.4568 29.4855 C 30.4568 26.7745 28.2117 24.4871 25.4795 24.4871 C 22.7261 24.4871 20.4811 26.7745 20.4811 29.4855 C 20.4811 32.2601 22.7261 34.5052 25.4795 34.5052 Z"/>
  </symbol>
  <symbol id="f7-doc-plain" viewBox="0 0 56 56">
    <path d="M 15.5547 53.125 L 40.4453 53.125 C 45.2969 53.125 47.7109 50.6875 47.7109 45.7890 L 47.7109 10.2344 C 47.7109 5.3594 45.2969 2.8750 40.4453 2.8750 L 15.5547 2.8750 C 10.7266 2.8750 8.2891 5.3594 8.2891 10.2344 L 8.2891 45.7890 C 8.2891 50.6875 10.7266 53.125 15.5547 53.125 Z M 15.7422 49.3515 C 13.3281 49.3515 12.0625 48.0625 12.0625 45.7187 L 12.0625 10.3047 C 12.0625 7.9844 13.3281 6.6484 15.7656 6.6484 L 40.2578 6.6484 C 42.6953 6.6484 43.9375 7.9609 43.9375 10.3047 L 43.9375 45.7187 C 43.9375 48.0625 42.6953 49.3515 40.2813 49.3515 Z M 19.1406 16.4453 L 36.9062 16.4453 C 37.7266 16.4453 38.3594 15.7891 38.3594 14.9687 C 38.3594 14.1718 37.7266 13.5625 36.9062 13.5625 L 19.1406 13.5625 C 18.2734 13.5625 17.6640 14.1718 17.6640 14.9687 C 17.6640 15.7891 18.2734 16.4453 19.1406 16.4453 Z M 19.1406 24.625 L 36.9062 24.625 C 37.7266 24.625 38.3594 23.9687 38.3594 23.1484 C 38.3594 22.3515 37.7266 21.7422 36.9062 21.7422 L 19.1406 21.7422 C 18.2734 21.7422 17.6640 22.3515 17.6640 23.1484 C 17.6640 23.9687 18.2734 24.625 19.1406 24.625 Z M 19.1406 32.8047 L 27.5547 32.8047 C 28.375 32.8047 29.0078 32.1718 29.0078 31.3750 C 29.0078 30.5547 28.375 29.9218 27.5547 29.9218 L 19.1406 29.9218 C 18.2734 29.9218 17.6640 30.5547 17.6640 31.3750 C 17.6640 32.1718 18.2734 32.8047 19.1406 32.8047 Z"/>
  </symbol>
</svg>
